<svg xmlns="http://www.w3.org/2000/svg" width="188" height="64" viewBox="0 0 188 64">
  <g id="그룹_244" data-name="그룹 244" transform="translate(-718 -403)">
    <g id="그룹_149" data-name="그룹 149" transform="translate(732 415)">
      <path id="패스_83" data-name="패스 83" d="M10.4,7.5A1.955,1.955,0,0,0,10,8.9V31a1.978,1.978,0,0,0,.5,1.4l.1.1L23,20.1v-.2Z" fill="none" stroke="#fff" stroke-width="3"/>
      <path id="패스_84" data-name="패스 84" d="M27,24.3l-4.1-4.1v-.3L27,15.8l.1.1L32,18.7c1.4.8,1.4,2.1,0,2.9Z" fill="none" stroke="#fff" stroke-width="3"/>
      <path id="패스_85" data-name="패스 85" d="M27.1,24.2,22.9,20,10.4,32.5c.5.5,1.2.5,2.1.1l14.6-8.4" fill="none" stroke="#fff" stroke-width="3"/>
      <path id="패스_86" data-name="패스 86" d="M27.1,15.8,12.5,7.5a1.621,1.621,0,0,0-2.1.1L22.9,20l4.2-4.2Z" fill="none" stroke="#fff" stroke-width="3"/>
      <path id="패스_87" data-name="패스 87" d="M27,24.1,12.5,32.3a1.635,1.635,0,0,1-2,0l-.1.1.1.1a1.635,1.635,0,0,0,2,0Z" fill="none" stroke="#fff" stroke-width="3" opacity="0.2"/>
      <path id="패스_88" data-name="패스 88" d="M10.4,32.3a1.955,1.955,0,0,1-.4-1.4V31a1.978,1.978,0,0,0,.5,1.4v-.1h-.1ZM32,21.3l-5,2.8.1.1L32,21.4A1.662,1.662,0,0,0,33,20C33,20.5,32.6,20.9,32,21.3Z" fill="none" stroke="#fff" stroke-width="3" opacity="0.12"/>
      <path id="패스_89" data-name="패스 89" d="M12.5,7.6,32,18.7c.6.4,1,.8,1,1.3a1.662,1.662,0,0,0-1-1.4L12.5,7.5C11.1,6.7,10,7.3,10,8.9V9C10,7.5,11.1,6.8,12.5,7.6Z" fill="none" stroke="#fff" stroke-width="3" opacity="0.25"/>
    </g>
    <g id="사각형_26" data-name="사각형 26" transform="translate(718 403)" fill="none" stroke="#fff" stroke-width="2">
      <rect width="188" height="64" rx="32" stroke="none"/>
      <rect x="1" y="1" width="186" height="62" rx="31" fill="none"/>
    </g>
    <text id="Google_Play" data-name="Google Play" transform="translate(831 442)" fill="#fff" font-size="20" font-family="AppleSDGothicNeo-Regular, Apple SD Gothic Neo" letter-spacing="0.01em"><tspan x="-50.31" y="0">Google Play</tspan></text>
  </g>
</svg>
