<svg xmlns="http://www.w3.org/2000/svg" width="188" height="64" viewBox="0 0 188 64">
  <g id="그룹_290" data-name="그룹 290" transform="translate(8299 -9156)">
    <g id="그룹_246" data-name="그룹 246" transform="translate(-9017 8753)">
      <g id="그룹_149" data-name="그룹 149" transform="translate(732 415)">
        <path id="패스_83" data-name="패스 83" d="M10.4,7.5A1.955,1.955,0,0,0,10,8.9V31a1.978,1.978,0,0,0,.5,1.4l.1.1L23,20.1v-.2Z" fill="rgba(0,0,0,0)" stroke="#e0e0e0" stroke-width="3"/>
        <path id="패스_84" data-name="패스 84" d="M27,24.3l-4.1-4.1v-.3L27,15.8l.1.1L32,18.7c1.4.8,1.4,2.1,0,2.9Z" fill="rgba(0,0,0,0)" stroke="#e0e0e0" stroke-width="3"/>
        <path id="패스_85" data-name="패스 85" d="M27.1,24.2,22.9,20,10.4,32.5c.5.5,1.2.5,2.1.1l14.6-8.4" fill="rgba(0,0,0,0)" stroke="#e0e0e0" stroke-width="3"/>
        <path id="패스_86" data-name="패스 86" d="M27.1,15.8,12.5,7.5a1.621,1.621,0,0,0-2.1.1L22.9,20l4.2-4.2Z" fill="rgba(0,0,0,0)" stroke="#e0e0e0" stroke-width="3"/>
        <path id="패스_87" data-name="패스 87" d="M27,24.1,12.5,32.3a1.635,1.635,0,0,1-2,0l-.1.1.1.1a1.635,1.635,0,0,0,2,0Z" stroke="#e0e0e0" stroke-width="3" opacity="0.2"/>
        <path id="패스_88" data-name="패스 88" d="M10.4,32.3a1.955,1.955,0,0,1-.4-1.4V31a1.978,1.978,0,0,0,.5,1.4v-.1h-.1ZM32,21.3l-5,2.8.1.1L32,21.4A1.662,1.662,0,0,0,33,20C33,20.5,32.6,20.9,32,21.3Z" stroke="#e0e0e0" stroke-width="3" opacity="0.12"/>
        <path id="패스_89" data-name="패스 89" d="M12.5,7.6,32,18.7c.6.4,1,.8,1,1.3a1.662,1.662,0,0,0-1-1.4L12.5,7.5C11.1,6.7,10,7.3,10,8.9V9C10,7.5,11.1,6.8,12.5,7.6Z" fill="#fff" stroke="#e0e0e0" stroke-width="3" opacity="0.25"/>
      </g>
      <g id="사각형_26" data-name="사각형 26" transform="translate(718 403)" fill="#fff" stroke="#e0e0e0" stroke-width="2">
        <rect width="188" height="64" rx="32" stroke="none"/>
        <rect x="1" y="1" width="186" height="62" rx="31" fill="none"/>
      </g>
      <text id="Google_Play" data-name="Google Play" transform="translate(831 442)" fill="#252729" font-size="20" font-family="AppleSDGothicNeo-Regular, Apple SD Gothic Neo" letter-spacing="0.01em"><tspan x="-50.31" y="0">Google Play</tspan></text>
    </g>
    <g id="playstore" transform="translate(-8298.549 9176)">
      <g id="그룹_248" data-name="그룹 248" transform="translate(23.549 0.001)">
        <path id="패스_193" data-name="패스 193" d="M64.546,8.714c-2.95-1.648-7.684-4.3-15.027-8.4a1.772,1.772,0,0,0-1.557-.2L60.561,12.7Z" transform="translate(-46.752 -0.012)" fill="#32bbff"/>
        <path id="패스_194" data-name="패스 194" d="M24.759,1.93a1.783,1.783,0,0,0-1.21,1.713V25.764a1.786,1.786,0,0,0,1.209,1.713L37.347,14.7Z" transform="translate(-23.549 -1.835)" fill="#32bbff"/>
        <path id="패스_195" data-name="패스 195" d="M60.555,255.98l-12.6,12.589a1.753,1.753,0,0,0,1.557-.2c7.121-3.984,11.8-6.6,14.786-8.262l.245-.137Z" transform="translate(-46.747 -242.926)" fill="#32bbff"/>
      </g>
      <path id="패스_196" data-name="패스 196" d="M23.549,255.98v10.9a1.77,1.77,0,0,0,.942,1.574,1.823,1.823,0,0,0,.267.115L37.347,255.98Z" transform="translate(0 -242.926)" fill="#2c9fd9"/>
      <path id="패스_197" data-name="패스 197" d="M44.384.3A1.775,1.775,0,0,0,42.561.21L55.226,12.875,59.4,8.7C56.451,7.054,51.721,4.407,44.384.3Z" transform="translate(-18.07 0)" fill="#29cc5e"/>
      <path id="패스_198" data-name="패스 198" d="M55.226,252.126,42.561,264.791a1.762,1.762,0,0,0,1.823-.089c7.115-3.984,11.792-6.6,14.774-8.262l.245-.137Z" transform="translate(-18.07 -239.263)" fill="#d93f21"/>
      <path id="패스_199" data-name="패스 199" d="M303.923,176.976a1.765,1.765,0,0,0-.909-1.552s-1.13-.63-4.592-2.567l-4.119,4.119,4.123,4.123c3.425-1.923,4.588-2.571,4.588-2.571A1.765,1.765,0,0,0,303.923,176.976Z" transform="translate(-257.324 -164.107)" fill="#ffd500"/>
      <path id="패스_200" data-name="패스 200" d="M303.014,257.532a1.765,1.765,0,0,0,.909-1.552H294.3l4.123,4.123C301.851,258.18,303.014,257.532,303.014,257.532Z" transform="translate(-257.324 -243.075)" fill="#fa0"/>
    </g>
  </g>
</svg>
