<svg xmlns="http://www.w3.org/2000/svg" width="93.817" height="86.183" viewBox="0 0 93.817 86.183">
  <g id="그룹_293" data-name="그룹 293" transform="translate(9102.779 -1375.201)">
    <g id="그룹_171" data-name="그룹 171" transform="translate(-9102.779 1375.201)">
      <g id="합치기_10" data-name="합치기 10" transform="translate(0 4.271)" fill="#fff5e8">
        <path d="M 50.67674255371094 81.41178894042969 L 50.67333984375 81.41178894042969 C 48.42625427246094 81.41178894042969 46.15896606445312 81.109619140625 43.93444061279297 80.51366424560547 C 41.36687850952148 79.82571411132812 38.95740509033203 78.77546691894531 36.77295303344727 77.39208984375 C 34.66516494750977 76.0572509765625 32.82095336914062 74.44825744628906 31.29154014587402 72.60977935791016 L 31.19962882995605 72.49930572509766 L 31.06309127807617 72.45447540283203 C 21.36301612854004 69.27045440673828 13.03066539764404 63.28311538696289 7.600940704345703 55.59539031982422 C 4.912990570068359 51.78964233398438 3.013278245925903 47.69828033447266 1.954590797424316 43.43494033813477 C 0.8601782321929932 39.02777862548828 0.6990532875061035 34.55987930297852 1.475690722465515 30.15535354614258 C 1.825953245162964 28.1690788269043 2.368190765380859 26.20970344543457 3.087328195571899 24.33166694641113 L 3.252915859222412 23.89924049377441 L 2.834453344345093 23.70100402832031 C 2.760953187942505 23.66619110107422 2.686978340148926 23.62900352478027 2.614578247070312 23.59049224853516 C 1.801328301429749 23.15810394287109 1.152903318405151 22.54767799377441 0.7886907458305359 21.87160301208496 C 0.4600032567977905 21.2614917755127 0.4099407494068146 20.67919158935547 0.6477282643318176 20.23197937011719 C 0.9233407378196716 19.71374130249023 1.565228223800659 19.41649055480957 2.408778190612793 19.41649055480957 C 3.08884072303772 19.41649055480957 3.842803239822388 19.61824226379395 4.531790733337402 19.98456573486328 L 4.56700325012207 20.00344085693359 L 4.995390892028809 20.23504066467285 L 5.238215923309326 19.81291580200195 C 8.57485294342041 14.01239109039307 13.75727844238281 9.146854400634766 20.2252025604248 5.742303848266602 C 26.74061584472656 2.312766313552856 34.31212997436523 0.5000039339065552 42.1212043762207 0.5000039339065552 C 45.11420440673828 0.5000039339065552 48.14901733398438 0.7675164341926575 51.14136505126953 1.295116424560547 C 55.95185470581055 2.143353939056396 60.55956649780273 3.638504028320312 64.83650207519531 5.739041328430176 C 68.9691162109375 7.768691539764404 72.71939086914062 10.32511615753174 75.98313140869141 13.33731651306152 C 79.20831298828125 16.31391716003418 81.87986755371094 19.66206550598145 83.92357635498047 23.28875350952148 C 85.99349212646484 26.96192932128906 87.36808776855469 30.83217811584473 88.00917816162109 34.7920036315918 L 88.03310394287109 34.93977737426758 L 88.13430023193359 35.05009078979492 C 90.27531433105469 37.38397979736328 91.83685302734375 40.10169219970703 92.65011596679688 42.90942764282227 C 93.49938201904297 45.84146499633789 93.54297637939453 48.77231597900391 92.77971649169922 51.62056732177734 C 91.89285278320312 54.93076705932617 89.94126892089844 57.87467956542969 87.13595581054688 60.13406753540039 C 84.39571380615234 62.34103012084961 80.94461822509766 63.82509231567383 77.15573120117188 64.42581939697266 L 77.01320648193359 64.44841766357422 L 76.90464019775391 64.54347991943359 C 74.80744171142578 66.37987518310547 72.45860290527344 68.02037811279297 69.92340087890625 69.41942596435547 L 69.76027679443359 69.50944519042969 L 69.69583892822266 69.68425750732422 C 68.40737915039062 73.17960357666016 65.91172790527344 76.13609313964844 62.47869110107422 78.23410034179688 C 59.07720184326172 80.31284332275391 54.99615478515625 81.41166687011719 50.67674255371094 81.41178894042969 Z" stroke="none"/>
        <path d="M 50.67673110961914 80.91178894042969 C 54.90411758422852 80.91166687011719 58.8950080871582 79.83820343017578 62.21795654296875 77.80746459960938 C 65.55397033691406 75.76874542236328 67.97755432128906 72.89997100830078 69.22669982910156 69.51132202148438 L 69.35558319091797 69.16169738769531 L 69.68182373046875 68.98165130615234 C 72.18569946289062 67.59989166259766 74.50498199462891 65.98011779785156 76.57524871826172 64.16732025146484 L 76.79238128662109 63.97718811035156 L 77.07742309570312 63.93198776245117 C 80.78023529052734 63.34490966796875 84.14997100830078 61.89694976806641 86.82232666015625 59.74465560913086 C 89.54448699951172 57.55224227905273 91.43751525878906 54.6982421875 92.2967529296875 51.49114990234375 C 93.03607940673828 48.73224258422852 92.99338531494141 45.8917350769043 92.16985321044922 43.04852294921875 C 91.37791442871094 40.31441497802734 89.85503387451172 37.66546630859375 87.76584625244141 35.38808059692383 L 87.56345367431641 35.16745376586914 L 87.51559448242188 34.87189483642578 C 86.88395690917969 30.9704418182373 85.52887725830078 27.1558952331543 83.48798370361328 23.53421401977539 C 81.46990203857422 19.95304107666016 78.83082580566406 16.64593505859375 75.64402008056641 13.70474815368652 C 72.41573333740234 10.72526836395264 68.70539855957031 8.19621467590332 64.61607360839844 6.187828063964844 C 60.38140869140625 4.108054637908936 55.81864929199219 2.627574682235718 51.05454254150391 1.787521481513977 C 48.09077072143555 1.26496148109436 45.08515548706055 1.000001430511475 42.12120819091797 1.000001430511475 C 34.39297103881836 1.000001430511475 26.90199661254883 2.792854785919189 20.45810317993164 6.18474817276001 C 14.07407665252686 9.545134544372559 8.960996627807617 14.34389495849609 5.671623229980469 20.06222724914551 L 5.186143398284912 20.90620231628418 L 4.329503059387207 20.44342803955078 L 4.297049999237061 20.42604064941406 C 3.679049968719482 20.09745407104492 3.008450031280518 19.91649436950684 2.408769845962524 19.91649436950684 C 1.765729904174805 19.91649436950684 1.272409915924072 20.12221527099609 1.089196562767029 20.46670722961426 C 0.9347032308578491 20.75728225708008 0.9856099486351013 21.18290901184082 1.22887659072876 21.63446807861328 C 1.54219663143158 22.21604156494141 2.132783174514771 22.76806831359863 2.849356651306152 23.1490421295166 C 2.914956569671631 23.18393516540527 2.981983184814453 23.21762847900391 3.048556566238403 23.24917411804199 L 3.885409832000732 23.64568138122559 L 3.554263353347778 24.51046752929688 C 2.846489906311035 26.35882759094238 2.312823295593262 28.28725433349609 1.968103289604187 30.24217414855957 C 1.203676581382751 34.57741546630859 1.362396597862244 38.97556304931641 2.439849853515625 43.3144416809082 C 3.483516693115234 47.51725387573242 5.357369899749756 51.55212020874023 8.009343147277832 55.30694961547852 C 13.37757015228271 62.90757369995117 21.62026405334473 68.82864379882812 31.21903610229492 71.97943115234375 L 31.49211692810059 72.06906890869141 L 31.67591667175293 72.29001617431641 C 33.17192840576172 74.08833312988281 34.97682189941406 75.66278839111328 37.04046249389648 76.96966552734375 C 39.18215560913086 78.32597351074219 41.54516983032227 79.35585784912109 44.06382369995117 80.03070831298828 C 46.24614334106445 80.61534881591797 48.46987533569336 80.91178894042969 50.67326354980469 80.91178894042969 L 50.67673110961914 80.91178894042969 M 50.67326354980469 81.91178894042969 C 48.42965316772461 81.91178894042969 46.11934661865234 81.61664581298828 43.80504989624023 80.99664306640625 C 38.45544815063477 79.56327056884766 33.98833084106445 76.63334655761719 30.90715599060059 72.92955017089844 C 10.79265022277832 66.32698822021484 -2.242710113525391 48.36392211914062 0.983289897441864 30.06852149963379 C 1.344623208045959 28.01942825317383 1.896063208580017 26.04444122314453 2.620383262634277 24.15286827087402 C 2.539956569671631 24.11476135253906 2.459663152694702 24.07442855834961 2.379770040512085 24.03193473815918 C 0.5202632546424866 23.04328155517578 -0.4529234170913696 21.23698806762695 0.2062499225139618 19.99724197387695 C 0.5842040181159973 19.28657531738281 1.416788816452026 18.91649627685547 2.408772468566895 18.91649627685547 C 3.146899700164795 18.91649627685547 3.973212957382202 19.12129974365234 4.76651668548584 19.54309463500977 C 4.779409885406494 19.54990768432617 4.792049884796143 19.55670738220215 4.804810047149658 19.56360054016113 C 11.67988967895508 7.611738204956055 25.99095344543457 -1.277669298360706e-06 42.12120819091797 -1.277669298360706e-06 C 45.10691070556641 -1.277669298360706e-06 48.1533088684082 0.2605574429035187 51.22818374633789 0.8027080893516541 C 71.07987976074219 4.303188323974609 85.86911773681641 18.44490814208984 88.50274658203125 34.71208190917969 C 92.88666534423828 39.49090957641602 94.87251281738281 45.74257659912109 93.26268005371094 51.7499885559082 C 91.36920928955078 58.81727981567383 84.9974365234375 63.68876266479492 77.23402404785156 64.91965484619141 C 75.10032653808594 66.78800201416016 72.72919464111328 68.44213104248047 70.16498565673828 69.85718536376953 C 67.43583679199219 77.26080322265625 59.58869171142578 81.91152191162109 50.6767578125 81.91178894042969 C 50.6756591796875 81.91178894042969 50.67435836791992 81.91178894042969 50.67326354980469 81.91178894042969 Z" stroke="none" fill="#707070"/>
      </g>
      <g id="그룹_166" data-name="그룹 166" transform="translate(22.763 0)">
        <g id="합치기_9" data-name="합치기 9" transform="translate(0 0)" fill="#fff5e8">
          <path d="M 33.97410202026367 64.15959930419922 C 26.46106147766113 64.15959930419922 19.30917167663574 61.59267044067383 13.83588123321533 56.93167114257812 C 8.346261024475098 52.25675964355469 5.058271408081055 45.89614868164062 4.577581405639648 39.02151870727539 C 4.360351085662842 35.91495132446289 4.71912145614624 32.82899856567383 5.64393138885498 29.84939956665039 L 5.749731063842773 29.50852012634277 L 5.461711406707764 29.29771041870117 C 4.956311225891113 28.92781066894531 4.473421096801758 28.51362037658691 4.026451110839844 28.066650390625 C 1.83652126789093 25.87671089172363 0.585631251335144 23.01185035705566 0.5042012929916382 19.99979019165039 C 0.4230612814426422 16.99809074401855 1.514151215553284 14.20897006988525 3.576491355895996 12.14622020721436 C 5.560581207275391 10.16211986541748 8.241110801696777 9.069419860839844 11.12424087524414 9.069419860839844 C 12.63832092285156 9.069419860839844 14.12688159942627 9.366499900817871 15.54859161376953 9.952400207519531 C 17.02190208435059 10.55957984924316 18.35029220581055 11.4488000869751 19.49685096740723 12.59535026550293 C 19.60683059692383 12.70534038543701 19.71674156188965 12.81949996948242 19.82352066040039 12.93465995788574 L 20.07739067077637 13.20845985412598 L 20.41201210021973 13.042799949646 C 24.16199111938477 11.18630981445312 28.22918128967285 10.09354972839355 32.50057983398438 9.794879913330078 C 32.66961288452148 9.783060073852539 32.83703994750977 9.772669792175293 33.01243209838867 9.763099670410156 L 33.37121200561523 9.7435302734375 L 33.46708297729492 9.397239685058594 C 34.18635940551758 6.798930168151855 35.64521026611328 4.565840244293213 37.68592071533203 2.939390182495117 C 39.65967178344727 1.366300106048584 42.06413269042969 0.4999601542949677 44.45640182495117 0.4999601542949677 C 45.3408317565918 0.4999601542949677 46.22447204589844 0.6165701150894165 47.08279037475586 0.8465601205825806 C 49.89804077148438 1.6009202003479 52.22801971435547 3.500680208206177 53.64351272583008 6.195879936218262 C 55.06600952148438 8.904419898986816 55.39538192749023 12.08975982666016 54.57094955444336 15.16513061523438 C 54.49685287475586 15.44174003601074 54.41259002685547 15.7194299697876 54.32047271728516 15.99059009552002 L 54.20869064331055 16.31963920593262 L 54.47814178466797 16.53910064697266 C 60.26379013061523 21.25131988525391 63.72360229492188 27.7547492980957 64.22022247314453 34.85139846801758 C 64.47602081298828 38.50965118408203 63.9381103515625 42.11371994018555 62.62141036987305 45.56346893310547 C 61.34822082519531 48.89923858642578 59.40410995483398 51.95195007324219 56.84310150146484 54.63679122924805 C 54.27899169921875 57.32487869262695 51.22615051269531 59.50836181640625 47.76938247680664 61.12657165527344 C 44.18801116943359 62.8031120300293 40.32792282104492 63.79611968994141 36.29632186889648 64.07803344726562 C 35.52870178222656 64.13215637207031 34.74748992919922 64.15959930419922 33.97410202026367 64.15959930419922 Z" stroke="none"/>
          <path d="M 33.97410202026367 63.65959930419922 C 34.73581314086914 63.65959930419922 35.50518035888672 63.6325798034668 36.26145172119141 63.57925033569336 C 40.23145294189453 63.30165100097656 44.03195190429688 62.32408905029297 47.55739212036133 60.67374038696289 C 50.9577522277832 59.08192825317383 53.96018981933594 56.93470001220703 56.48130035400391 54.29167938232422 C 58.99623107910156 51.6551513671875 60.90489196777344 48.6585693359375 62.15428161621094 45.38518142700195 C 63.44486236572266 42.00382995605469 63.97212982177734 38.47148132324219 63.72144317626953 34.88631057739258 C 63.23456192016602 27.9289608001709 59.83975982666016 21.55080986022949 54.16239166259766 16.92679023742676 L 53.62348175048828 16.48785972595215 L 53.84704971313477 15.82976055145264 C 53.93564987182617 15.56892967224121 54.0167121887207 15.30181980133057 54.0880012512207 15.03567028045654 C 54.87977981567383 12.08207988739014 54.56472015380859 9.025279998779297 53.20085144042969 6.428369998931885 C 51.85100173950195 3.858150243759155 49.63227081298828 2.047350168228149 46.95337295532227 1.329520106315613 C 46.13726043701172 1.110840201377869 45.29716110229492 0.9999601244926453 44.45640182495117 0.9999601244926453 C 42.17691040039062 0.9999601244926453 39.88311004638672 1.827590107917786 37.99755096435547 3.330390214920044 C 36.03989028930664 4.890660285949707 34.63991165161133 7.034670352935791 33.94895172119141 9.530630111694336 L 33.75723266601562 10.22321033477783 L 33.0396728515625 10.26236057281494 C 32.86684036254883 10.27178001403809 32.70191955566406 10.28202056884766 32.53544998168945 10.29366016387939 C 28.32940101623535 10.58775997161865 24.32512092590332 11.66347026824951 20.63384056091309 13.49090003967285 L 19.96460151672363 13.82221984863281 L 19.45687103271484 13.27462005615234 C 19.35435104370117 13.16405010223389 19.24885177612305 13.0544605255127 19.14329147338867 12.94890975952148 C 18.04362106323242 11.84922981262207 16.77009201049805 10.99660015106201 15.35808086395264 10.4146900177002 C 13.99710083007812 9.85381031036377 12.57263088226318 9.569419860839844 11.12424087524414 9.569419860839844 C 8.374661445617676 9.569419860839844 5.819701194763184 10.61011981964111 3.930081367492676 12.49974060058594 C -0.1397987306118011 16.5704402923584 0.06203126907348633 23.39512062072754 4.380011081695557 27.71309089660645 C 4.808931350708008 28.14200973510742 5.272221088409424 28.53940963745117 5.757021427154541 28.89423942565918 L 6.333061218261719 29.31584930419922 L 6.121451377868652 29.99761962890625 C 5.215091228485107 32.91778945922852 4.863471031188965 35.942138671875 5.076361179351807 38.98664855957031 C 5.547601222991943 45.72611999511719 8.773581504821777 51.96393203735352 14.1600513458252 56.55099868774414 C 19.54298210144043 61.13505172729492 26.57974052429199 63.65959930419922 33.97410202026367 63.65959930419922 M 33.97410202026367 64.65959930419922 C 18.25110054016113 64.65959930419922 5.09580135345459 53.60129928588867 4.078801155090332 39.05640029907227 C 3.852341175079346 35.81782913208008 4.245701313018799 32.66756057739258 5.166401386260986 29.70119094848633 C 4.645111083984375 29.31965065002441 4.145161151885986 28.89245986938477 3.672901153564453 28.42020034790039 C -1.04309868812561 23.70420074462891 -1.243798732757568 16.26029968261719 3.222901344299316 11.79269981384277 C 5.3773512840271 9.638250350952148 8.22508430480957 8.569416046142578 11.12424564361572 8.569416046142578 C 14.23696327209473 8.569416046142578 17.40910530090332 9.800503730773926 19.85040092468262 12.24180030822754 C 19.96640205383301 12.35780048370361 20.07963180541992 12.47549057006836 20.19017219543457 12.59471035003662 C 23.8784008026123 10.76879024505615 28.02997207641602 9.606260299682617 32.46570205688477 9.296100616455078 C 32.63945007324219 9.283949851989746 32.81196212768555 9.273289680480957 32.98520278930664 9.263839721679688 C 34.52327346801758 3.707797288894653 39.3276252746582 -4.145874117966741e-05 44.45639801025391 -4.145874117966741e-05 C 45.37032699584961 -4.145874117966741e-05 46.29429626464844 0.117642305791378 47.21220016479492 0.3636001348495483 C 53.31510162353516 1.998900175094604 56.82600021362305 8.684100151062012 55.05390167236328 15.29460048675537 C 54.97607040405273 15.58514022827148 54.88912963867188 15.87110042572021 54.79389953613281 16.15142059326172 C 60.45038223266602 20.75843048095703 64.19476318359375 27.32522964477539 64.71900177001953 34.81650161743164 C 65.78639984130859 50.08140182495117 53.07660293579102 63.40589904785156 36.33119964599609 64.57681274414062 C 35.54010009765625 64.63259887695312 34.75440216064453 64.65959930419922 33.97410202026367 64.65959930419922 Z" stroke="none" fill="#707070"/>
        </g>
        <ellipse id="타원_38" data-name="타원 38" cx="2.98" cy="2.98" rx="2.98" ry="2.98" transform="translate(31.239 43.075) rotate(-7)" fill="#584c44"/>
        <ellipse id="타원_39" data-name="타원 39" cx="2.98" cy="2.98" rx="2.98" ry="2.98" transform="translate(42.466 39.507) rotate(-7)" fill="#584c44"/>
      </g>
      <ellipse id="타원_41" data-name="타원 41" cx="6.673" cy="5.561" rx="6.673" ry="5.561" transform="translate(28.16 15.651) rotate(34)" fill="#ffefdb"/>
    </g>
  </g>
</svg>
