<svg xmlns="http://www.w3.org/2000/svg" xmlns:xlink="http://www.w3.org/1999/xlink" width="96.6" height="99.427" viewBox="0 0 96.6 99.427">
  <defs>
    <clipPath id="clip-path">
      <path id="합치기_3" data-name="합치기 3" d="M0,48.178A26.1,26.1,0,0,1,6.534,31.012,7.567,7.567,0,0,1,5.648,28.7L2.239,8.833c-.682-3.551,5.709-1.549,9.029,1.1L22.423,19.957,27.275,5.793c1.554-3.852,6-7.946,7.374-4.493l7.921,19.146a7.312,7.312,0,0,1,.488,2.536c10.464,4.378,17.73,14.013,17.73,25.2,0,15.3-13.608,27.708-30.394,27.708S0,63.48,0,48.178Z" transform="matrix(0.998, -0.07, 0.07, 0.998, 0, 4.24)" fill="#fff" stroke="#707070" stroke-linecap="round" stroke-width="1"/>
    </clipPath>
  </defs>
  <g id="그룹_291" data-name="그룹 291" transform="translate(9343.883 -1361.957)">
    <g id="그룹_169" data-name="그룹 169" transform="translate(-9343.883 1361.957)">
      <g id="합치기_6" data-name="합치기 6" transform="translate(0 17.515)" fill="#fff">
        <path d="M 53.45904159545898 81.41229248046875 C 51.20996475219727 81.41229248046875 48.94166564941406 81.11001586914062 46.7171516418457 80.51385498046875 C 44.14926528930664 79.82584381103516 41.73965454101562 78.77560424804688 39.55525207519531 77.39230346679688 C 37.44745254516602 76.05750274658203 35.60326766967773 74.44850158691406 34.07391738891602 72.60999298095703 L 33.98201751708984 72.49948883056641 L 33.84545516967773 72.45468139648438 C 24.14521598815918 69.27081298828125 15.8127908706665 63.28356552124023 10.38309097290039 55.59584045410156 C 7.695178508758545 51.79011535644531 5.795516014099121 47.69876480102539 4.736865997314453 43.43541717529297 C 3.642515897750854 39.02826690673828 3.481440782546997 34.56036758422852 4.258115768432617 30.15582847595215 C 4.673191070556641 27.80201530456543 5.355765819549561 25.4946403503418 6.286903381347656 23.29777908325195 L 6.511903285980225 22.76690292358398 L 5.954528331756592 22.61931610107422 C 2.74297833442688 21.76892852783203 0.5000033974647522 18.94440460205078 0.5000033974647522 15.75056648254395 C 0.5000033974647522 11.82100391387939 3.839403390884399 8.624066352844238 7.94407844543457 8.624066352844238 C 9.145316123962402 8.624066352844238 10.29171562194824 8.889416694641113 11.35142803192139 9.412741661071777 C 12.36097812652588 9.911291122436523 13.25289058685303 10.6380786895752 13.93074131011963 11.51451587677002 L 14.26334095001221 11.94454097747803 L 14.66410350799561 11.57720375061035 C 18.46924018859863 8.089466094970703 23.01702880859375 5.350803852081299 28.18111610412598 3.437316179275513 C 33.44117736816406 1.488253712654114 39.06684112548828 0.5000037550926208 44.90181732177734 0.5000037550926208 C 47.89524078369141 0.5000037550926208 50.93059158325195 0.7675787210464478 53.92355346679688 1.295278787612915 C 58.73407745361328 2.143553733825684 63.34180450439453 3.638716220855713 67.61872863769531 5.739241123199463 C 71.7513427734375 7.768891334533691 75.50160217285156 10.32531642913818 78.76535034179688 13.33751583099365 C 81.99053192138672 16.31411552429199 84.66209411621094 19.66227912902832 86.70585632324219 23.28897857666016 C 88.77580261230469 26.96216583251953 90.15048217773438 30.83246612548828 90.79169464111328 34.79236602783203 L 90.81561279296875 34.94011688232422 L 90.91679382324219 35.0504150390625 C 93.05755615234375 37.38434219360352 94.61896514892578 40.10205459594727 95.43220520019531 42.90975189208984 C 96.28150177001953 45.8419303894043 96.32514190673828 48.77277755737305 95.56188201904297 51.62086486816406 C 94.6749267578125 54.93110275268555 92.72334289550781 57.87501525878906 89.91810607910156 60.13434219360352 C 87.17791748046875 62.34126663208008 83.72677612304688 63.82536697387695 79.93776702880859 64.42617797851562 L 79.79522705078125 64.44877624511719 L 79.68666839599609 64.54385375976562 C 77.58940124511719 66.38043212890625 75.24066925048828 68.02090454101562 72.7056884765625 69.41970062255859 L 72.54255676269531 69.50971984863281 L 72.47811889648438 69.68453979492188 C 71.18961334228516 73.17985534667969 68.69395446777344 76.13634490966797 65.26094055175781 78.234375 C 61.85947799682617 80.31314086914062 57.7784423828125 81.41205596923828 53.45901489257812 81.41229248046875 L 53.45904159545898 81.41229248046875 Z" stroke="none"/>
        <path d="M 53.45904541015625 80.91228485107422 L 53.45899200439453 80.91228485107422 C 57.68637847900391 80.91204833984375 61.67727279663086 79.83852386474609 65.00020599365234 77.80775451660156 C 68.33620452880859 75.76898956298828 70.75979614257812 72.90023040771484 72.00896453857422 69.51158905029297 L 72.13785552978516 69.16194915771484 L 72.46412658691406 68.98192596435547 C 74.96771240234375 67.60045623779297 77.28689575195312 65.98072814941406 79.35724639892578 64.16770172119141 L 79.57439422607422 63.9775505065918 L 79.85944366455078 63.93233871459961 C 83.56239318847656 63.34519195556641 86.93216705322266 61.8972053527832 89.60446929931641 59.74493789672852 C 92.32656860351562 57.55257797241211 94.2196044921875 54.69857788085938 95.07892608642578 51.4914436340332 C 95.81824493408203 48.73270034790039 95.77552795410156 45.89220428466797 94.95195007324219 43.04885864257812 C 94.16001892089844 40.31477737426758 92.63727569580078 37.66583251953125 90.54830932617188 35.38840484619141 L 90.34596252441406 35.16779327392578 L 90.29811096191406 34.87228393554688 C 89.66635131835938 30.97073936462402 88.31118011474609 27.1561393737793 86.27025604248047 23.53445816040039 C 84.25213623046875 19.95324516296387 81.61302947998047 16.64612579345703 78.42623138427734 13.7049388885498 C 75.19795227050781 10.72547245025635 71.48761749267578 8.196418762207031 67.3983154296875 6.188032150268555 C 63.16364669799805 4.108258724212646 58.60086059570312 2.627765417098999 53.83672714233398 1.787685394287109 C 50.87240600585938 1.265018701553345 47.86627197265625 1.00000536441803 44.90183258056641 1.00000536441803 C 39.1263542175293 1.00000536441803 33.55913925170898 1.977778792381287 28.35484504699707 3.906165361404419 C 23.2517261505127 5.797071933746338 18.75915336608887 8.501992225646973 15.00193881988525 11.94580554962158 L 14.20040607452393 12.6804723739624 L 13.53521919250488 11.82040500640869 C 12.90357875823975 11.00369834899902 12.07187271118164 10.32616519927979 11.13003253936768 9.861059188842773 C 10.13977909088135 9.372032165527344 9.067859649658203 9.124072074890137 7.944072723388672 9.124072074890137 C 4.115099430084229 9.124072074890137 1.000005841255188 12.09669876098633 1.000005841255188 15.75056552886963 C 1.000005841255188 18.71781921386719 3.090005874633789 21.34359169006348 6.082512378692627 22.13597869873047 L 7.197272777557373 22.43115234375 L 6.747245788574219 23.49289894104004 C 5.830832481384277 25.65505790710449 5.159032344818115 27.92600631713867 4.750512599945068 30.2426586151123 C 3.986059188842773 34.57791137695312 4.144725799560547 38.97604370117188 5.222126007080078 43.31491088867188 C 6.26575231552124 47.51775360107422 8.139552116394043 51.55260467529297 10.79149913787842 55.30739212036133 C 16.1596851348877 62.90802001953125 24.40244674682617 68.82899475097656 34.00138092041016 71.97960662841797 L 34.27449798583984 72.06924438476562 L 34.45831298828125 72.29022979736328 C 35.95423126220703 74.08857727050781 37.75908660888672 75.66304779052734 39.82275390625 76.96987152099609 C 41.96440505981445 78.32609558105469 44.32755279541016 79.35597991943359 46.84660720825195 80.03089904785156 C 49.02887344360352 80.61575317382812 51.25362014770508 80.91228485107422 53.45904541015625 80.91228485107422 M 53.45904541015625 81.91228485107422 C 51.21401977539062 81.91228485107422 48.90284729003906 81.61725616455078 46.58773803710938 80.99681854248047 C 41.23761749267578 79.56336212158203 36.77060699462891 76.63371276855469 33.68952560424805 72.92974090576172 C 13.57451248168945 66.32748413085938 0.5395658612251282 48.3643798828125 3.76571249961853 30.06900596618652 C 4.194525718688965 27.63724517822266 4.891005992889404 25.30991172790527 5.826539039611816 23.10265922546387 C 2.466925859451294 22.21307182312012 5.875243914488237e-06 19.25841903686523 5.875243914488237e-06 15.75056552886963 C 5.875243914488237e-06 11.538405418396 3.556459188461304 8.124072074890137 7.944072723388672 8.124072074890137 C 10.5588321685791 8.124072074890137 12.8785924911499 9.336845397949219 14.32624626159668 11.20861911773682 C 21.99482917785645 4.179707050323486 32.94887161254883 5.122884090269508e-07 44.90183258056641 5.122884090269508e-07 C 47.88801956176758 5.122884090269508e-07 50.93485641479492 0.2606101036071777 54.0103645324707 0.8028720617294312 C 73.86222076416016 4.303458690643311 88.651123046875 18.44499206542969 91.28525543212891 34.71244430541992 C 95.66847229003906 39.49113845825195 97.65473937988281 45.74299240112305 96.04484558105469 51.75029754638672 C 94.15120697021484 58.81763076782227 87.77976226806641 63.6889533996582 80.01605987548828 64.92000579833984 C 77.88276672363281 66.78815460205078 75.51131439208984 68.44264221191406 72.94724273681641 69.85747528076172 C 70.21804809570312 77.26100921630859 62.37099075317383 81.91178894042969 53.45904541015625 81.91228485107422 Z" stroke="none" fill="#707070"/>
      </g>
      <g id="그룹_161" data-name="그룹 161" transform="translate(26.263 0)">
        <g id="그룹_158" data-name="그룹 158" transform="matrix(0.998, -0.07, 0.07, 0.998, 0, 4.24)">
          <path id="합치기_3-2" data-name="합치기 3" d="M0,48.178A26.1,26.1,0,0,1,6.534,31.012,7.567,7.567,0,0,1,5.648,28.7L2.239,8.833c-.682-3.551,5.709-1.549,9.029,1.1L22.423,19.957,27.275,5.793c1.554-3.852,6-7.946,7.374-4.493l7.921,19.146a7.312,7.312,0,0,1,.488,2.536c10.464,4.378,17.73,14.013,17.73,25.2,0,15.3-13.608,27.708-30.394,27.708S0,63.48,0,48.178Z" transform="translate(0 0)" fill="#fff"/>
        </g>
        <ellipse id="타원_28" data-name="타원 28" cx="2.98" cy="2.98" rx="2.98" ry="2.98" transform="translate(29.567 56.32) rotate(-7)" fill="#ffe5e5"/>
        <ellipse id="타원_29" data-name="타원 29" cx="2.98" cy="2.98" rx="2.98" ry="2.98" transform="translate(40.795 52.752) rotate(-7)" fill="#ffe5e5"/>
        <g id="그룹_162" data-name="그룹 162" transform="matrix(0.998, -0.07, 0.07, 0.998, 0, 4.24)">
          <g id="합치기_3-3" data-name="합치기 3" transform="translate(0 0)" fill="none" stroke-linecap="round">
            <path d="M0,48.178A26.1,26.1,0,0,1,6.534,31.012,7.567,7.567,0,0,1,5.648,28.7L2.239,8.833c-.682-3.551,5.709-1.549,9.029,1.1L22.423,19.957,27.275,5.793c1.554-3.852,6-7.946,7.374-4.493l7.921,19.146a7.312,7.312,0,0,1,.488,2.536c10.464,4.378,17.73,14.013,17.73,25.2,0,15.3-13.608,27.708-30.394,27.708S0,63.48,0,48.178Z" stroke="none"/>
            <path d="M 30.39431953430176 74.88594055175781 C 34.37400817871094 74.88594055175781 38.23340606689453 74.17586517333984 41.86530685424805 72.77543640136719 C 45.36836242675781 71.42469787597656 48.51320648193359 69.49210357666016 51.21247482299805 67.0313720703125 C 53.90512084960938 64.57666015625 56.01809692382812 61.72048568725586 57.49272918701172 58.54216384887695 C 59.01599502563477 55.25902938842773 59.78835296630859 51.7719841003418 59.78835296630859 48.17789459228516 C 59.78835296630859 42.98149490356445 58.14469528198242 37.94441604614258 55.03508758544922 33.6112060546875 C 51.99295425415039 29.37202835083008 47.71817398071289 26.01564025878906 42.67288589477539 23.90487289428711 L 42.0728874206543 23.65385055541992 L 42.05905151367188 23.00360679626465 C 42.04216766357422 22.20952415466309 41.90263366699219 21.47564125061035 41.6442985534668 20.82219123840332 L 33.72575378417969 1.682206630706787 L 33.72300720214844 1.675573348999023 L 33.72036361694336 1.668906688690186 C 33.45480728149414 0.9999955296516418 33.16291809082031 0.9999955296516418 33.02265167236328 0.9999955296516418 C 31.79489326477051 0.9999955296516418 29.33966255187988 3.370729446411133 28.21255874633789 6.143175601959229 L 23.36948585510254 20.28074073791504 L 22.87965202331543 21.71061706542969 L 21.75521850585938 20.70060729980469 L 10.62133502960205 10.69983863830566 C 8.690610885620117 9.165943145751953 5.735357761383057 7.921095371246338 4.019796848297119 7.921095371246338 C 3.519830226898193 7.921095371246338 3.29433012008667 8.032584190368652 3.23990797996521 8.098462104797363 C 3.193585634231567 8.154540061950684 3.160841226577759 8.331162452697754 3.22101902961731 8.644384384155273 L 3.222896814346313 8.654162406921387 L 3.224585771560669 8.663973808288574 L 6.632086277008057 28.52498626708984 C 6.758157253265381 29.17437934875488 7.016993045806885 29.84385871887207 7.401518821716309 30.51509475708008 L 7.754296779632568 31.13091850280762 L 7.289419174194336 31.66718482971191 C 5.290207862854004 33.97341918945312 3.73426342010498 36.5400276184082 2.664807796478271 39.29570770263672 C 1.560119032859802 42.14216232299805 0.9999967813491821 45.13056182861328 0.9999967813491821 48.17789459228516 C 0.9999967813491821 51.77197265625 1.772374629974365 55.25901794433594 3.295663356781006 58.54216384887695 C 4.770318984985352 61.72047424316406 6.883330345153809 64.57665252685547 9.576007843017578 67.03136444091797 C 12.27531909942627 69.49210357666016 15.42018604278564 71.42469787597656 18.92327499389648 72.77543640136719 C 22.55521965026855 74.17586517333984 26.41463088989258 74.88594055175781 30.39431953430176 74.88594055175781 M 30.39431953430176 75.88594055175781 C 13.60807418823242 75.88594055175781 -3.201972049282631e-06 63.48043823242188 -3.201972049282631e-06 48.17789459228516 C -3.201972049282631e-06 41.69492721557617 2.442207813262939 35.73213958740234 6.533807754516602 31.01216316223145 C 6.111252307891846 30.27452850341797 5.799496650695801 29.49121856689453 5.648230075836182 28.70425033569336 L 2.238985776901245 8.833073616027832 C 1.976142883300781 7.465112209320068 2.763348579406738 6.921099662780762 4.019792556762695 6.921099662780762 C 6.025205135345459 6.921099662780762 9.226752281188965 8.305865287780762 11.26756381988525 9.936128616333008 L 22.42345237731934 19.95666313171387 L 27.27535247802734 5.793328762054443 C 28.41734886169434 2.962206125259399 31.12408828735352 6.340874278976116e-07 33.02265548706055 6.340874278976116e-07 C 33.70722579956055 6.340874278976116e-07 34.28653335571289 0.3848987519741058 34.64979553222656 1.299917817115784 L 42.57102966308594 20.44639587402344 C 42.88577270507812 21.23929595947266 43.04020690917969 22.10665130615234 43.05883026123047 22.98235130310059 C 53.52266311645508 27.36004066467285 60.78835296630859 36.9949951171875 60.78835296630859 48.17789459228516 C 60.78835296630859 63.48043823242188 47.18056488037109 75.88594055175781 30.39431953430176 75.88594055175781 Z" stroke="none" fill="#707070"/>
          </g>
        </g>
      </g>
      <g id="마스크_그룹_2" data-name="마스크 그룹 2" transform="translate(26.898 0.318)" clip-path="url(#clip-path)">
        <ellipse id="타원_31" data-name="타원 31" cx="8.681" cy="5.383" rx="8.681" ry="5.383" transform="translate(9.084 18.882) rotate(66)" fill="#fdfafa"/>
      </g>
    </g>
  </g>
</svg>
