<svg xmlns="http://www.w3.org/2000/svg" width="95.173" height="81.912" viewBox="0 0 95.173 81.912">
  <g id="그룹_292" data-name="그룹 292" transform="translate(9223.296 -1379.473)">
    <g id="그룹_170" data-name="그룹 170" transform="translate(-9223.296 1379.473)">
      <g id="합치기_8" data-name="합치기 8" transform="translate(0 0)" fill="#dbbfaa">
        <path d="M 52.0326042175293 81.41170501708984 C 49.78474044799805 81.41170501708984 47.51635360717773 81.10947418212891 45.29043960571289 80.51341247558594 C 42.7227668762207 79.82527923583984 40.31320190429688 78.77500152587891 38.12880325317383 77.39179992675781 C 36.02079010009766 76.05695343017578 34.17663955688477 74.44810485839844 32.64760208129883 72.60995483398438 L 32.55569076538086 72.49946594238281 L 32.41913986206055 72.45464324951172 C 22.71891593933105 69.27071380615234 14.38651561737061 63.28339004516602 8.956840515136719 55.59558868408203 C 6.268928527832031 51.78982543945312 4.369240760803223 47.69839096069336 3.310528516769409 43.43492889404297 C 2.216128587722778 39.02767562866211 2.054953575134277 34.55963897705078 2.831503391265869 30.15491485595703 C 3.17685341835022 28.19643974304199 3.709303379058838 26.26281356811523 4.414078712463379 24.40776443481445 L 4.533653259277344 24.09305191040039 L 4.287015914916992 23.86388969421387 C 3.511503458023071 23.14335250854492 2.828603506088257 22.2199764251709 2.257266044616699 21.11942672729492 C 1.299478530883789 19.2769775390625 0.8668659925460815 17.35684013366699 0.6726034879684448 16.0704402923584 C 0.4485034644603729 14.59250164031982 0.4425784647464752 13.10902690887451 0.654915988445282 11.66093921661377 C 0.8871659636497498 10.06546497344971 1.377766013145447 8.583927154541016 2.113141059875488 7.256964683532715 L 2.116378545761108 7.251126766204834 L 2.119453430175781 7.245189666748047 L 4.281931400299072 3.084660291671753 C 4.83562183380127 7.255994319915771 6.715821743011475 11.15753555297852 9.741966247558594 14.40137672424316 L 10.11910343170166 14.80563926696777 L 10.48355388641357 14.38990211486816 C 12.35859107971191 12.25103950500488 14.53235340118408 10.29811477661133 16.94447898864746 8.58536434173584 C 19.34640312194824 6.879851818084717 21.9892406463623 5.409127235412598 24.7995777130127 4.214039325714111 C 27.63301658630371 3.009139537811279 30.64270401000977 2.082014560699463 33.74504089355469 1.458426952362061 C 36.90947723388672 0.8223519921302795 40.18310165405273 0.4998395144939423 43.47497940063477 0.4998395144939423 C 46.4686393737793 0.4998395144939423 49.50424194335938 0.7674394845962524 52.49747848510742 1.295202016830444 C 57.30789184570312 2.143352031707764 61.91554260253906 3.638439416885376 66.19246673583984 5.738914489746094 C 70.32508087158203 7.768527030944824 74.07535552978516 10.32492733001709 77.33910369873047 13.33710193634033 C 80.5643310546875 16.3137264251709 83.23589324951172 19.66189002990723 85.27960205078125 23.28858947753906 C 87.34952545166016 26.96181488037109 88.72410583496094 30.83212661743164 89.36512756347656 34.7920036315918 L 89.38905334472656 34.93977737426758 L 89.49025726318359 35.05010223388672 C 91.63117980957031 37.38397598266602 93.19266510009766 40.10170364379883 94.00590515136719 42.90946578979492 C 94.8551025390625 45.84137725830078 94.89881896972656 48.77223968505859 94.13582611083984 51.62062835693359 C 93.24891662597656 54.9305534362793 91.29725646972656 57.87436294555664 88.49185180664062 60.1337890625 C 85.75151824951172 62.34081268310547 82.30035400390625 63.82498931884766 78.51148986816406 64.42588043212891 L 78.36898040771484 64.44847869873047 L 78.26042938232422 64.54352569580078 C 76.16202545166016 66.38082885742188 73.81336975097656 68.02128601074219 71.27965545654297 69.41932678222656 L 71.11653137207031 69.50933074951172 L 71.05207824707031 69.68412780761719 C 69.7633056640625 73.17947387695312 67.26750183105469 76.135986328125 63.83445358276367 78.23403930664062 C 60.43284225463867 80.31288909912109 56.35182952880859 81.41170501708984 52.0326042175293 81.41170501708984 Z" stroke="none"/>
        <path d="M 52.03260803222656 80.91169738769531 C 56.25979232788086 80.91169738769531 60.25064849853516 79.83824920654297 63.57372665405273 77.80741119384766 C 66.90975189208984 75.76863098144531 69.33351135253906 72.89984893798828 70.58295440673828 69.51115417480469 L 70.71186065673828 69.16155242919922 L 71.03810119628906 68.98154449462891 C 73.54045867919922 67.60080718994141 75.85959625244141 65.98107147216797 77.93106079101562 64.16734313964844 L 78.14817047119141 63.97724914550781 L 78.43318176269531 63.93204879760742 C 82.13597869873047 63.34482192993164 85.50576782226562 61.8967399597168 88.17823028564453 59.74438095092773 C 90.90048980712891 57.55192947387695 92.79359436035156 54.6980094909668 93.65286254882812 51.49124908447266 C 94.39191436767578 48.73218154907227 94.34911346435547 45.89166259765625 93.52565002441406 43.04856872558594 C 92.73372650146484 40.31443405151367 91.21089935302734 37.66548919677734 89.12179565429688 35.38808822631836 L 88.91939544677734 35.16746139526367 L 88.87155151367188 34.87190246582031 C 88.23996734619141 30.97038078308105 86.88490295410156 27.15578079223633 84.84400939941406 23.53406143188477 C 82.82594299316406 19.95286178588867 80.18683624267578 16.64572715759277 76.99999237060547 13.70454120635986 C 73.77169799804688 10.72507476806641 70.06136322021484 8.196047782897949 65.9720458984375 6.187701225280762 C 61.73739242553711 4.107994556427002 57.17468643188477 2.627581119537354 52.41065979003906 1.787607789039612 C 49.44600677490234 1.264874458312988 46.43960571289062 0.9998344779014587 43.47499465942383 0.9998344779014587 C 40.21612548828125 0.9998344779014587 36.97565841674805 1.319047808647156 33.84357833862305 1.948621153831482 C 30.77448654174805 2.56551456451416 27.7974739074707 3.482527732849121 24.99524688720703 4.674167633056641 C 22.2179126739502 5.855207920074463 19.60663414001465 7.308287620544434 17.23395347595215 8.993034362792969 C 14.85358047485352 10.68324756622314 12.70891380310059 12.60991477966309 10.85953998565674 14.71950149536133 L 10.13063335418701 15.55098152160645 L 9.37636661529541 14.74244785308838 C 6.640017032623291 11.80924892425537 4.818731307983398 8.348492622375488 4.039956569671631 4.634384632110596 L 2.563113451004028 7.475780963897705 L 2.556953430175781 7.487634658813477 L 2.55047345161438 7.499314308166504 C 1.844500184059143 8.773247718811035 1.373220086097717 10.19747447967529 1.149620175361633 11.73348808288574 C 0.9444601535797119 13.13264751434326 0.9502734541893005 14.56648826599121 1.166993498802185 15.99578094482422 C 1.35559344291687 17.24464797973633 1.774766802787781 19.10726165771484 2.701033592224121 20.88904762268066 C 3.24588680267334 21.9385814666748 3.893993377685547 22.81623458862305 4.627340316772461 23.49760818481445 L 5.120620250701904 23.9559154510498 L 4.881486892700195 24.58535385131836 C 4.187846660614014 26.41106033325195 3.663806915283203 28.31415367126465 3.32391357421875 30.24172782897949 C 2.559580087661743 34.57716751098633 2.718340158462524 38.97546005249023 3.795793533325195 43.31442260742188 C 4.839473247528076 47.51736831665039 6.713300228118896 51.55229949951172 9.365246772766113 55.3071403503418 C 14.73342037200928 62.9078483581543 22.97615432739258 68.82890319824219 32.5750732421875 71.97956848144531 L 32.84817886352539 72.06922149658203 L 33.0319938659668 72.29019165039062 C 34.52760696411133 74.08818054199219 36.33242034912109 75.6624755859375 38.39630126953125 76.96936798095703 C 40.5379524230957 78.32550048828125 42.90106201171875 79.35540771484375 45.41976547241211 80.03043365478516 C 47.60351181030273 80.61519622802734 49.82839202880859 80.91169738769531 52.03260803222656 80.91169738769531 M 52.03260803222656 81.91169738769531 C 49.78800582885742 81.91169738769531 47.476806640625 81.61650085449219 45.16109848022461 80.99639129638672 C 39.81150054931641 79.56269836425781 35.34389877319336 76.63320922851562 32.26320648193359 72.92970275878906 C 12.14820671081543 66.32730102539062 -0.8864998817443848 48.36419296264648 2.339100122451782 30.06810188293457 C 2.695366859436035 28.04768753051758 3.237206697463989 26.09759521484375 3.946673393249512 24.23019409179688 C 3.127993583679199 23.46954154968262 2.41403341293335 22.5065803527832 1.813500165939331 21.34979438781738 C 0.8235001564025879 19.44539451599121 0.3779934644699097 17.46810150146484 0.1782068163156509 16.14510154724121 C -0.0530998557806015 14.61959457397461 -0.05939318612217903 13.08600807189941 0.1601934731006622 11.58840751647949 C 0.4014068245887756 9.931501388549805 0.9117001295089722 8.393407821655273 1.675806760787964 7.014594554901123 L 4.173300266265869 2.209501266479492 L 4.71150016784668 2.457901239395142 C 5.152673244476318 6.745034694671631 7.041713714599609 10.77388763427734 10.10758018493652 14.06030082702637 C 17.76633644104004 5.323891639709473 29.98324775695801 -0.0001634147192817181 43.47499084472656 -0.0001634147192817181 C 46.46097564697266 -0.0001634147192817181 49.50896835327148 0.2605557441711426 52.58430099487305 0.8027945160865784 C 72.43560791015625 4.302901268005371 87.22530364990234 18.44460868835449 89.85870361328125 34.71210098266602 C 94.24260711669922 39.4911003112793 96.22800445556641 45.74250030517578 94.61880493164062 51.74999618530273 C 92.72520446777344 58.81680679321289 86.35321044921875 63.68849945068359 78.58980560302734 64.91970062255859 C 76.45590209960938 66.78810119628906 74.08529663085938 68.44229888916016 71.52120971679688 69.85710144042969 C 68.79150390625 77.260498046875 60.94440841674805 81.91169738769531 52.03260803222656 81.91169738769531 Z" stroke="none" fill="#707070"/>
      </g>
      <g id="합치기_9" data-name="합치기 9" transform="translate(21.612 0.814)" fill="#dbbfaa">
        <path d="M 36.47867965698242 59.07369613647461 C 28.99337959289551 59.07381439208984 21.86150741577148 56.5233039855957 16.39574241638184 51.89191818237305 C 10.91536235809326 47.24814605712891 7.612162113189697 40.92272567749023 7.094622135162354 34.08085632324219 L 7.065782070159912 33.6995849609375 L 6.690281867980957 33.62752532958984 C 5.148811817169189 33.33170700073242 3.776711940765381 32.61814498901367 2.722311973571777 31.56399726867676 C -0.7372080683708191 28.1036262512207 -0.08196809887886047 21.8184757232666 4.183052062988281 17.55344581604004 C 6.523831844329834 15.21267604827881 9.562272071838379 13.87017631530762 12.51930236816406 13.87017631530762 C 13.11236190795898 13.87017631530762 13.69655227661133 13.92564678192139 14.25563144683838 14.03503608703613 L 14.5205020904541 14.08686637878418 L 14.7091817855835 13.89387607574463 C 19.96358108520508 8.519336700439453 27.17218208312988 5.257726669311523 35.007080078125 4.709876537322998 C 35.7783317565918 4.655946254730225 36.55948257446289 4.62860631942749 37.32884216308594 4.62860631942749 C 38.46244049072266 4.62860631942749 39.60508346557617 4.68787670135498 40.72500228881836 4.804786682128906 L 41.02824020385742 4.83643627166748 L 41.19524002075195 4.581356525421143 C 42.0078010559082 3.340186357498169 43.21719360351562 2.307756423950195 44.69266128540039 1.595686435699463 C 46.17802047729492 0.8788464665412903 47.90387344360352 0.4999464750289917 49.68365097045898 0.4999464750289917 C 50.82538223266602 0.4999464750289917 51.97850036621094 0.6538164615631104 53.11099243164062 0.9572664499282837 C 58.93719100952148 2.518646478652954 62.64682006835938 7.634246349334717 61.38034057617188 12.36078643798828 C 61.19301223754883 13.05977630615234 60.90244293212891 13.72718620300293 60.51669311523438 14.34445667266846 L 60.32194137573242 14.65608692169189 L 60.56121063232422 14.93498611450195 C 64.21366882324219 19.19265556335449 66.34567260742188 24.32127571105957 66.72672271728516 29.76639556884766 C 66.98252105712891 33.42464828491211 66.44461059570312 37.02871704101562 65.12791442871094 40.47847747802734 C 63.85472106933594 43.81424713134766 61.91061019897461 46.86694717407227 59.34960174560547 49.55178833007812 C 56.78549194335938 52.23987579345703 53.73265075683594 54.42335510253906 50.27588272094727 56.04156494140625 C 46.69451141357422 57.71810531616211 42.83442306518555 58.71111679077148 38.80282211303711 58.99302673339844 C 38.03155136108398 59.04654693603516 37.25015258789062 59.07369613647461 36.4806022644043 59.07369613647461 L 36.48057174682617 59.07369613647461 C 36.4801139831543 59.07369613647461 36.4791374206543 59.07369613647461 36.47867965698242 59.07369613647461 Z" stroke="none"/>
        <path d="M 36.47869110107422 58.57369613647461 C 36.47914123535156 58.57369613647461 36.4800910949707 58.57369613647461 36.48054122924805 58.57369613647461 L 36.4806022644043 58.57369613647461 C 37.23866271972656 58.57369613647461 38.0084114074707 58.54695510864258 38.76795196533203 58.49424743652344 C 42.73795318603516 58.21664810180664 46.5384521484375 57.23908615112305 50.06389236450195 55.58873748779297 C 53.46425247192383 53.99692535400391 56.46669006347656 51.84969711303711 58.98780059814453 49.2066764831543 C 61.50273132324219 46.57014465332031 63.41139221191406 43.57356643676758 64.66078186035156 40.30018615722656 C 65.95136260986328 36.9188346862793 66.47863006591797 33.3864860534668 66.22794342041016 29.80130577087402 C 65.85445404052734 24.46416664123535 63.76370239257812 19.4360466003418 60.18171310424805 15.26053619384766 L 59.70319366455078 14.70272636413574 L 60.09267044067383 14.07948684692383 C 60.45215225219727 13.50425624847412 60.72289276123047 12.8824462890625 60.89737319946289 12.23137664794922 C 62.09250259399414 7.771136283874512 58.54147338867188 2.930236577987671 52.98157119750977 1.440226435661316 C 51.89129257202148 1.148076415061951 50.78171157836914 0.9999464750289917 49.68365097045898 0.9999464750289917 C 47.97868347167969 0.9999464750289917 46.32797241210938 1.361666440963745 44.90998077392578 2.045996427536011 C 43.51628112792969 2.718596458435059 42.37640380859375 3.690016508102417 41.61356353759766 4.855226516723633 L 41.27957153320312 5.365386486053467 L 40.67309188842773 5.302086353302002 C 39.57036209106445 5.186976432800293 38.4451904296875 5.12860631942749 37.32884216308594 5.12860631942749 C 36.57108306884766 5.12860631942749 35.80166244506836 5.155536651611328 35.04195022583008 5.208656311035156 C 27.32939147949219 5.747956275939941 20.23538208007812 8.95655632019043 15.06670188903809 14.24341678619385 L 14.68936157226562 14.62938690185547 L 14.15963172912598 14.52573680877686 C 13.63208198547363 14.42251682281494 13.08019161224365 14.37017631530762 12.51930236816406 14.37017631530762 C 9.693891525268555 14.37017631530762 6.784311771392822 15.6592960357666 4.536612033843994 17.90700721740723 C 0.4665119051933289 21.97710609436035 -0.1887180954217911 27.94506645202637 3.075821876525879 31.21040725708008 C 4.059211730957031 32.19355773925781 5.341661930084229 32.85958480834961 6.784512042999268 33.1364860534668 L 7.53551197052002 33.28061676025391 L 7.593192100524902 34.04313659667969 C 8.10056209564209 40.75052642822266 11.34149169921875 46.95386505126953 16.71897125244141 51.51044464111328 C 22.09453392028809 56.06539916992188 29.11163330078125 58.57381057739258 36.47869110107422 58.57369613647461 M 36.4806022644043 59.57369613647461 C 20.81038284301758 59.5745964050293 7.690742015838623 48.59033584594727 6.596041679382324 34.11856460571289 C 4.998481750488281 33.81197738647461 3.535271883010864 33.08378601074219 2.368801832199097 31.9175968170166 C -1.291498064994812 28.25639724731445 -0.6380981206893921 21.66750717163086 3.829501867294312 17.19989585876465 C 6.35261058807373 14.67678737640381 9.552483558654785 13.37017345428467 12.51930332183838 13.37017345428467 C 13.14326190948486 13.37017345428467 13.75675487518311 13.42794132232666 14.35165214538574 13.54434680938721 C 19.47603225708008 8.302796363830566 26.73543167114258 4.787046432495117 34.97220230102539 4.211096286773682 C 35.76308441162109 4.155794620513916 36.5492057800293 4.128605842590332 37.32884216308594 4.128605842590332 C 38.49372863769531 4.128605842590332 39.64439392089844 4.189268112182617 40.77691268920898 4.307486534118652 C 42.53726196289062 1.618605732917786 45.91012954711914 -5.036377115175128e-05 49.68365478515625 -5.036377115175128e-05 C 50.8431396484375 -5.036377115175128e-05 52.04040145874023 0.1527606695890427 53.24040222167969 0.4743064641952515 C 59.34240341186523 2.109596490859985 63.20340347290039 7.488896369934082 61.86330032348633 12.49019622802734 C 61.65923309326172 13.25167655944824 61.34609222412109 13.96073627471924 60.94070053100586 14.60943603515625 C 64.53353118896484 18.79758644104004 66.82391357421875 23.99284553527832 67.22550201416016 29.73149681091309 C 68.29290008544922 44.99640655517578 55.58310317993164 58.32089614868164 38.83770370483398 59.49180603027344 C 38.04660034179688 59.54670715332031 37.26000213623047 59.57369613647461 36.4806022644043 59.57369613647461 Z" stroke="none" fill="#707070"/>
      </g>
      <ellipse id="타원_38" data-name="타원 38" cx="2.98" cy="2.98" rx="2.98" ry="2.98" transform="translate(55.357 38.804) rotate(-7)" fill="#cba38a"/>
      <ellipse id="타원_39" data-name="타원 39" cx="2.98" cy="2.98" rx="2.98" ry="2.98" transform="translate(66.584 35.236) rotate(-7)" fill="#cba38a"/>
    </g>
  </g>
</svg>
