<svg xmlns="http://www.w3.org/2000/svg" width="34.236" height="27.082" viewBox="0 0 34.236 27.082">
  <g id="그룹_237" data-name="그룹 237" transform="translate(-982 -1294)">
    <circle id="타원_61" data-name="타원 61" cx="4" cy="4" r="4" transform="translate(982 1302)" fill="#90d4c2"/>
    <circle id="타원_62" data-name="타원 62" cx="4" cy="4" r="4" transform="translate(990 1294)" fill="#90d4c2"/>
    <circle id="타원_63" data-name="타원 63" cx="4" cy="4" r="4" transform="translate(1008.236 1301.27)" fill="#90d4c2"/>
    <circle id="타원_64" data-name="타원 64" cx="4" cy="4" r="4" transform="translate(1000 1294)" fill="#90d4c2"/>
    <path id="패스_95" data-name="패스 95" d="M120.789,101.94a18.007,18.007,0,0,1-2.249-1.434c-2.32-1.583-3.994-2.871-6.718-2.871-3.149,0-5.056,1.865-7.385,3.734-.195.116-.379.251-.578.368a7.117,7.117,0,0,0-2.557,10.418c2.934,4.188,9.54,1.828,9.916,1.625a7.478,7.478,0,0,0,.749-.473.356.356,0,0,1,.233-.085.323.323,0,0,1,.213.062,7.4,7.4,0,0,0,.964.531c.244.11,5.559,2.22,8.872-1.249C124.211,110.511,126.482,105.344,120.789,101.94Z" transform="translate(886.828 1206.456)" fill="#90d4c2"/>
  </g>
</svg>
