<svg xmlns="http://www.w3.org/2000/svg" width="30" height="30" viewBox="0 0 30 30">
  <g id="그룹_305" data-name="그룹 305" transform="translate(6601 -8757)">
    <circle id="타원_161" data-name="타원 161" cx="15" cy="15" r="15" transform="translate(-6601 8757)" fill="#87d5d6"/>
    <g id="그룹_303" data-name="그룹 303" transform="translate(-6593 8765.626)">
      <path id="패스_35" data-name="패스 35" d="M9.786,0H3.73A3.734,3.734,0,0,0,0,3.73V9.787a3.734,3.734,0,0,0,3.73,3.73H9.786a3.734,3.734,0,0,0,3.73-3.73V3.73A3.734,3.734,0,0,0,9.786,0Zm2.531,9.787a2.534,2.534,0,0,1-2.531,2.531H3.73A2.534,2.534,0,0,1,1.2,9.787V3.73A2.534,2.534,0,0,1,3.73,1.2H9.786A2.534,2.534,0,0,1,12.317,3.73V9.787Z" transform="translate(0)" fill="#fff"/>
      <path id="패스_36" data-name="패스 36" d="M44.1,40.97A3.133,3.133,0,1,0,47.234,44.1,3.137,3.137,0,0,0,44.1,40.97Zm0,5.187A2.054,2.054,0,1,1,46.155,44.1,2.057,2.057,0,0,1,44.1,46.157Z" transform="translate(-37.343 -37.345)" fill="#fff"/>
      <path id="패스_37" data-name="패스 37" d="M119.894,28.251a.973.973,0,1,0,.688.285A.977.977,0,0,0,119.894,28.251Z" transform="translate(-109.565 -26.029)" fill="#fff"/>
    </g>
  </g>
</svg>
