<svg xmlns="http://www.w3.org/2000/svg" width="74.641" height="24.908" viewBox="0 0 74.641 24.908">
  <g id="그룹_226" data-name="그룹 226" transform="translate(-102.908 -143.652)">
    <path id="패스_96" data-name="패스 96" d="M120.634,158.589h-7.415c-3.667,0-6.651-2.193-6.651-5.86s2.984-5.86,6.651-5.86h7.415a1.581,1.581,0,0,0,0-3.161h-7.415c-5.419,0-9.811,3.6-9.811,9.021s4.392,9.021,9.811,9.021h7.415a1.58,1.58,0,0,0,0-3.161Z" fill="#fff"/>
    <path id="패스_97" data-name="패스 97" d="M118.194,151.149h-6.605a1.58,1.58,0,1,0,0,3.16h6.605a1.58,1.58,0,0,0,0-3.161Z" fill="#fff"/>
    <path id="패스_98" data-name="패스 98" d="M166.92,143.652H154.672a1.58,1.58,0,1,0,0,3.16H166.92a1.58,1.58,0,0,0,0-3.16Z" fill="#fff"/>
    <path id="패스_99" data-name="패스 99" d="M159.834,152.294h0V148.94a1.581,1.581,0,0,0-3.161,0h0v3.354a1.581,1.581,0,0,0,3.16,0Z" fill="#fff"/>
    <path id="패스_100" data-name="패스 100" d="M164.918,152.294h0V148.94a1.581,1.581,0,0,0-3.161,0h0v3.354a1.581,1.581,0,0,0,3.161,0Z" fill="#fff"/>
    <path id="패스_101" data-name="패스 101" d="M166.92,154.7H154.672a1.581,1.581,0,0,0,0,3.161H166.92a1.581,1.581,0,0,0,0-3.161Z" fill="#fff"/>
    <circle id="타원_93" data-name="타원 93" cx="1.918" cy="1.918" r="1.918" transform="translate(111.893 162.875)" fill="#fff"/>
    <path id="패스_102" data-name="패스 102" d="M123.134,165.4h-7.089a2.312,2.312,0,0,1-4.469,0h-7.088a1.58,1.58,0,0,0,0,3.16h18.646a1.58,1.58,0,0,0,0-3.161Z" fill="#fff"/>
    <g id="그룹_225" data-name="그룹 225">
      <path id="패스_103" data-name="패스 103" d="M140.509,156.589h-5.415c-3.667,0-6.651-1.193-6.651-4.86s2.984-4.86,6.651-4.86h5.415a1.581,1.581,0,0,0,0-3.161h-5.415c-5.419,0-9.811,2.6-9.811,8.021s4.392,8.021,9.811,8.021h5.415a1.58,1.58,0,0,0,0-3.161Z" fill="#fff"/>
    </g>
    <circle id="타원_94" data-name="타원 94" cx="1.918" cy="1.918" r="1.918" transform="translate(145.961 149.811)" fill="#fff"/>
    <path id="패스_104" data-name="패스 104" d="M147.274,158.17h0v-4.206a2.312,2.312,0,0,1,0-4.469v-4.206a1.58,1.58,0,1,0-3.161,0h0V158.17a1.58,1.58,0,0,0,3.161,0Z" fill="#fff"/>
    <circle id="타원_95" data-name="타원 95" cx="1.918" cy="1.918" r="1.918" transform="translate(167.646 149.811)" fill="#fff"/>
    <path id="패스_105" data-name="패스 105" d="M170.17,145.289h0v4.206a2.312,2.312,0,0,1,0,4.469v4.206a1.58,1.58,0,0,0,3.16,0h0V145.289a1.58,1.58,0,1,0-3.16,0Z" fill="#fff"/>
    <path id="패스_106" data-name="패스 106" d="M174.388,145.289h0V158.17a1.58,1.58,0,0,0,3.161,0h0V145.289a1.58,1.58,0,1,0-3.161,0Z" fill="#fff"/>
    <path id="패스_107" data-name="패스 107" d="M173.873,165.554l-5.308-2.545v-2.762a1.581,1.581,0,0,0-3.161,0h0v2.762l-5.308,2.545a1.58,1.58,0,0,0,1.366,2.85h0l5.523-2.647,5.522,2.647h0a1.58,1.58,0,0,0,1.366-2.85Z" fill="#fff"/>
    <path id="패스_108" data-name="패스 108" d="M145.658,168.56c0-3.668-2.984-4.511-6.651-4.511h-5.415a1.58,1.58,0,0,1,0-3.161h5.415c5.419,0,9.811,2.253,9.811,7.672Z" fill="#fff"/>
  </g>
</svg>
