<svg id="review" xmlns="http://www.w3.org/2000/svg" width="44.5" height="44.5" viewBox="0 0 44.5 44.5">
  <g id="그룹_253" data-name="그룹 253" transform="translate(5.439 5.439)">
    <g id="그룹_252" data-name="그룹 252" transform="translate(0 0)">
      <circle id="타원_154" data-name="타원 154" cx="1.5" cy="1.5" r="1.5" transform="translate(-0.439 -0.439)" fill="#87d5d6"/>
    </g>
  </g>
  <g id="그룹_255" data-name="그룹 255" transform="translate(10.383 5.439)">
    <g id="그룹_254" data-name="그룹 254" transform="translate(0 0)">
      <circle id="타원_155" data-name="타원 155" cx="1.5" cy="1.5" r="1.5" transform="translate(-0.383 -0.439)" fill="#87d5d6"/>
    </g>
  </g>
  <g id="그룹_259" data-name="그룹 259">
    <g id="그룹_258" data-name="그룹 258">
      <path id="패스_211" data-name="패스 211" d="M40.589,0H3.911A3.916,3.916,0,0,0,0,3.911V40.589A3.916,3.916,0,0,0,3.911,44.5H40.589A3.916,3.916,0,0,0,44.5,40.589V3.911A3.916,3.916,0,0,0,40.589,0Zm1.3,40.589a1.305,1.305,0,0,1-1.3,1.3H3.911a1.305,1.305,0,0,1-1.3-1.3V12.734H41.893Zm0-30.462H2.607V3.911a1.305,1.305,0,0,1,1.3-1.3H40.589a1.305,1.305,0,0,1,1.3,1.3Z" fill="#87d5d6"/>
    </g>
  </g>
  <g id="그룹_261" data-name="그룹 261" transform="translate(31.376 5.215)">
    <g id="그룹_260" data-name="그룹 260">
      <path id="패스_212" data-name="패스 212" d="M367.519,60H362.3a1.3,1.3,0,0,0,0,2.607h5.215a1.3,1.3,0,0,0,0-2.607Z" transform="translate(-361 -60)" fill="#87d5d6"/>
    </g>
  </g>
  <g id="그룹_263" data-name="그룹 263" transform="translate(18.563 15.566)">
    <g id="그룹_262" data-name="그룹 262">
      <path id="패스_213" data-name="패스 213" d="M233.006,180a3.915,3.915,0,0,0-5.507.479l-11.861,14.035a3.931,3.931,0,0,0-.808,1.605l-1.212,5.072a1.3,1.3,0,0,0,1.787,1.5l4.785-2.074a3.926,3.926,0,0,0,1.438-1.071l11.861-14.035A3.916,3.916,0,0,0,233.006,180Zm-13.853,18.224-2.392,1.037.606-2.536c.088-.371.25-.513.713-1.061l2,1.676C219.608,197.9,219.5,198.079,219.152,198.229Zm2.607-2.875-2-1.676,7.206-8.527,2,1.676Zm9.734-11.518-.844,1-2-1.676.841-1a1.3,1.3,0,0,1,2,1.672Z" transform="translate(-213.582 -179.091)" fill="#87d5d6"/>
    </g>
  </g>
  <g id="그룹_265" data-name="그룹 265" transform="translate(5.302 18.339)">
    <g id="그룹_264" data-name="그룹 264">
      <path id="패스_214" data-name="패스 214" d="M75.341,211H62.3a1.3,1.3,0,0,0,0,2.607H75.341a1.3,1.3,0,0,0,0-2.607Z" transform="translate(-61 -211)" fill="#87d5d6"/>
    </g>
  </g>
  <g id="그룹_267" data-name="그룹 267" transform="translate(5.302 26.161)">
    <g id="그룹_266" data-name="그룹 266">
      <path id="패스_215" data-name="패스 215" d="M70.126,301H62.3a1.3,1.3,0,0,0,0,2.607h7.822a1.3,1.3,0,0,0,0-2.607Z" transform="translate(-61 -301)" fill="#87d5d6"/>
    </g>
  </g>
  <g id="그룹_269" data-name="그룹 269" transform="translate(5.302 33.983)">
    <g id="그룹_268" data-name="그룹 268">
      <path id="패스_216" data-name="패스 216" d="M70.126,391H62.3a1.3,1.3,0,0,0,0,2.607h7.822a1.3,1.3,0,0,0,0-2.607Z" transform="translate(-61 -391)" fill="#87d5d6"/>
    </g>
  </g>
  <g id="그룹_271" data-name="그룹 271" transform="translate(15.383 5.439)">
    <g id="그룹_254-2" data-name="그룹 254" transform="translate(0 0)">
      <circle id="타원_155-2" data-name="타원 155" cx="1.5" cy="1.5" r="1.5" transform="translate(-0.383 -0.439)" fill="#87d5d6"/>
    </g>
  </g>
</svg>
