<svg id="그룹_168" data-name="그룹 168" xmlns="http://www.w3.org/2000/svg" xmlns:xlink="http://www.w3.org/1999/xlink" width="93.323" height="86.492" viewBox="0 0 93.323 86.492">
  <defs>
    <clipPath id="clip-path">
      <path id="합치기_3" data-name="합치기 3" d="M3.378,34.595a25.453,25.453,0,0,1,1.359-8.217q-.053-.115-.1-.236L.173,13.942c-.875-2.388,1.7-4.679,4.753-4.231l12.08,1.769A32.378,32.378,0,0,1,33.773,6.886q1.292,0,2.557.1L46.2.725C48.632-.82,52.244.233,52.871,2.672l3.2,12.453a2.772,2.772,0,0,1,.089.73,26.319,26.319,0,0,1,8,18.739c0,15.3-13.608,27.708-30.394,27.708S3.378,49.9,3.378,34.595Z" transform="translate(0 0)" fill="#fff" stroke="#707070" stroke-width="1"/>
    </clipPath>
  </defs>
  <g id="합치기_4" data-name="합치기 4" transform="translate(0 3.965)" fill="#fff">
    <path d="M 50.18288421630859 81.41197204589844 C 47.9338493347168 81.41207122802734 45.66543579101562 81.10983276367188 43.44069671630859 80.51363372802734 C 40.87302398681641 79.82566070556641 38.46350860595703 78.77543640136719 36.27906036376953 77.39213562011719 C 34.17121124267578 76.05731964111328 32.32694625854492 74.44832611083984 30.79752159118652 72.60984802246094 L 30.70561027526855 72.49937438964844 L 30.56907272338867 72.45454406738281 C 20.86897277832031 69.27053833007812 12.53663539886475 63.28321075439453 7.106935024261475 55.59548568725586 C 4.419010162353516 51.78974914550781 2.519322395324707 47.69837188720703 1.46063494682312 43.43500900268555 C 0.3662349283695221 39.02784729003906 0.2051099389791489 34.55992126464844 0.9817349314689636 30.15537261962891 C 1.738422393798828 25.86445999145508 3.353785037994385 21.8175220489502 5.782947540283203 18.12696075439453 C 8.133110046386719 14.55642318725586 11.18556022644043 11.40388488769531 14.85549736022949 8.756885528564453 C 18.50069808959961 6.127748012542725 22.63957214355469 4.079622745513916 27.15717315673828 2.669410228729248 C 31.76864814758301 1.229897856712341 36.63684844970703 0.5000103712081909 41.62657165527344 0.5000103712081909 C 44.61970901489258 0.5000103712081909 47.65469741821289 0.7675353288650513 50.64724731445312 1.295160293579102 C 55.45777130126953 2.14343523979187 60.06552124023438 3.638597726821899 64.34247589111328 5.739135265350342 C 68.47511291503906 7.76878547668457 72.22538757324219 10.32521057128906 75.48912048339844 13.33739757537842 C 78.71430969238281 16.31401062011719 81.38587188720703 19.66216087341309 83.42959594726562 23.28884696960449 C 85.49951171875 26.96202278137207 86.87412261962891 30.83230972290039 87.51523590087891 34.79218673706055 L 87.53916168212891 34.93996047973633 L 87.64035797119141 35.05027389526367 C 89.78129577636719 37.38414764404297 91.34279632568359 40.10182189941406 92.15604400634766 42.90951156616211 C 93.00533294677734 45.84159851074219 93.04893493652344 48.7724609375 92.28562164306641 51.62068557739258 C 91.39875793457031 54.93082427978516 89.44717407226562 57.87471008300781 86.64186096191406 60.13410949707031 C 83.901611328125 62.34109878540039 80.45052337646484 63.82517242431641 76.66168212890625 64.42589569091797 L 76.51914978027344 64.44850158691406 L 76.41058349609375 64.54357147216797 C 74.31360626220703 66.37991333007812 71.96485900878906 68.02043914794922 69.42958831787109 69.41957092285156 L 69.26647186279297 69.50958251953125 L 69.20203399658203 69.68439483642578 C 67.91354370117188 73.17972564697266 65.4178466796875 76.13619995117188 61.98476028442383 78.23422241210938 C 58.58327102661133 80.31293487548828 54.50225830078125 81.41177368164062 50.18288421630859 81.41197204589844 Z" stroke="none"/>
    <path d="M 50.18288040161133 80.91197204589844 C 54.41021347045898 80.91178894042969 58.40107727050781 79.83830261230469 61.72404098510742 77.80758666992188 C 65.06010437011719 75.76885223388672 67.48373413085938 72.90010833740234 68.73289489746094 69.51146697998047 L 68.86177062988281 69.16184997558594 L 69.18799591064453 68.98182678222656 C 71.69191741943359 67.5999755859375 74.01111602783203 65.98017120361328 76.08118438720703 64.16741180419922 L 76.29831695556641 63.97726440429688 L 76.58338928222656 63.93206787109375 C 80.28614807128906 63.34498596191406 83.65586853027344 61.89701461791992 86.32823944091797 59.74469375610352 C 89.05039978027344 57.55226516723633 90.94342803955078 54.69829177856445 91.80266571044922 51.49125289916992 C 92.54202270507812 48.73237228393555 92.49934387207031 45.89185333251953 91.67579650878906 43.04861450195312 C 90.88386535644531 40.31455993652344 89.36102294921875 37.66565322875977 87.27190399169922 35.38826751708984 L 87.06951904296875 35.16765213012695 L 87.02166748046875 34.87210464477539 C 86.38999938964844 30.97057342529297 85.03488922119141 27.1560001373291 82.99399566650391 23.5343189239502 C 80.97592163085938 19.9531192779541 78.33682250976562 16.6460132598877 75.1500244140625 13.70482635498047 C 71.92173004150391 10.72535991668701 68.21138763427734 8.196306228637695 64.12205505371094 6.187919616699219 C 59.88737106323242 4.10815954208374 55.3245735168457 2.627666234970093 50.5604133605957 1.787572860717773 C 47.59651947021484 1.264986157417297 44.59073257446289 1.000012874603271 41.62656021118164 1.000012874603271 C 36.68742752075195 1.000012874603271 31.86934661865234 1.72226619720459 27.30615997314453 3.146706104278564 C 22.84003829956055 4.540839672088623 18.74943923950195 6.564826011657715 15.14798545837402 9.162412643432617 C 11.52754592895508 11.77370643615723 8.517212867736816 14.88230609893799 6.200599193572998 18.4018669128418 C 3.80913233757019 22.03514671325684 2.218932390213013 26.01881217956543 1.474159121513367 30.24218559265137 C 0.7097457647323608 34.57746505737305 0.868465781211853 38.97562789916992 1.945905804634094 43.31451797485352 C 2.989559173583984 47.51736068725586 4.863399028778076 51.55222702026367 7.515345573425293 55.30704116821289 C 12.88353252410889 62.90768051147461 21.12621307373047 68.8287353515625 30.72499847412109 71.9794921875 L 30.99807929992676 72.06912231445312 L 31.18189239501953 72.29007720947266 C 32.67791748046875 74.08840179443359 34.48285293579102 75.66284942626953 36.54657363891602 76.96970367431641 C 38.68825149536133 78.32594299316406 41.05130767822266 79.35579681396484 43.57013320922852 80.03067779541016 C 45.75270462036133 80.61557006835938 47.97754669189453 80.91207885742188 50.18286514282227 80.91197204589844 L 50.18288040161133 80.91197204589844 M 50.18291854858398 81.91197204589844 C 47.93801116943359 81.91207885742188 45.62662506103516 81.6170654296875 43.311279296875 80.99659729003906 C 37.96162414550781 79.56324005126953 33.49441146850586 76.63352203369141 30.41313171386719 72.92961120605469 C 10.29851913452148 66.32709503173828 -2.736587524414062 48.36404037475586 0.4893457889556885 30.06854629516602 C 3.63200855255127 12.24745273590088 21.16403388977051 7.168375759647461e-06 41.62656021118164 7.168375759647461e-06 C 44.61193084716797 7.168375759647461e-06 47.65950393676758 0.2606728374958038 50.73405075073242 0.8027595281600952 C 70.58596038818359 4.303359508514404 85.37506866455078 18.44487953186035 88.00881195068359 34.7122802734375 C 92.39249420166016 39.49098587036133 94.37854766845703 45.74262619018555 92.76858520507812 51.75010681152344 C 90.8751220703125 58.81723785400391 84.50333404541016 63.68882751464844 76.73998260498047 64.91973114013672 C 74.60641479492188 66.78810882568359 72.23521423339844 68.44232177734375 69.67117309570312 69.85734558105469 C 66.94195556640625 77.26095581054688 59.09465408325195 81.91157531738281 50.18291854858398 81.91197204589844 Z" stroke="none" fill="#707070"/>
  </g>
  <ellipse id="타원_26" data-name="타원 26" cx="34.5" cy="25.5" rx="34.5" ry="25.5" transform="translate(7.689 4.136)" fill="#a5a5a5"/>
  <g id="그룹_158" data-name="그룹 158" transform="matrix(0.998, -0.07, 0.07, 0.998, 20.564, 4.476)">
    <g id="합치기_3-2" data-name="합치기 3" transform="translate(0 0)" fill="#fff">
      <path d="M 33.77275466918945 61.80215835571289 C 29.7313346862793 61.80215835571289 25.81141471862793 61.08084106445312 22.12187385559082 59.65824127197266 C 18.56066513061523 58.28512191772461 15.36297416687012 56.31993865966797 12.61764430999756 53.81727981567383 C 9.875604629516602 51.3176383972168 7.723324298858643 48.40798950195312 6.220564365386963 45.16915130615234 C 4.666444301605225 41.81962966918945 3.878444194793701 38.26179885864258 3.878444194793701 34.59450912475586 C 3.878444194793701 31.84774971008301 4.326624393463135 29.13739013671875 5.21053409576416 26.53873062133789 L 5.275044441223145 26.34905052185059 L 5.190734386444092 26.16729927062988 C 5.16072416305542 26.10263061523438 5.133214473724365 26.03625106811523 5.108964443206787 25.97001075744629 L 0.6426442265510559 13.76980972290039 C 0.3078442513942719 12.85574054718018 0.6184342503547668 12.11880016326904 0.9379242658615112 11.66152000427246 C 1.587474226951599 10.7318696975708 2.820764303207397 10.15435981750488 4.156524181365967 10.15435981750488 C 4.387184143066406 10.15435981750488 4.62162446975708 10.17158031463623 4.853344440460205 10.20555019378662 L 16.93311500549316 11.97494983673096 L 17.1105842590332 12.00094985961914 L 17.26411437988281 11.90820026397705 C 22.16102409362793 8.949970245361328 27.86962509155273 7.386330127716064 33.77275466918945 7.386330127716064 C 34.61240386962891 7.386330127716064 35.46011352539062 7.418390274047852 36.29234313964844 7.481610298156738 L 36.4578742980957 7.494190216064453 L 36.59804534912109 7.405270099639893 L 46.46444320678711 1.146760106086731 C 47.13144302368164 0.7236401438713074 47.92904281616211 0.5000001192092896 48.77103424072266 0.5000001192092896 C 49.61306381225586 0.5000001192092896 50.43994522094727 0.7270501255989075 51.0993537902832 1.139330148696899 C 51.56764602661133 1.432110190391541 52.1711540222168 1.957290172576904 52.38693237304688 2.796590089797974 L 55.58849334716797 15.24942016601562 C 55.63981246948242 15.44912052154541 55.66445541381836 15.65060997009277 55.66171264648438 15.84823989868164 L 55.65876388549805 16.06052017211914 L 55.80946350097656 16.21006965637207 C 60.87616348266602 21.23818016052246 63.66652297973633 27.76724052429199 63.66652297973633 34.59450912475586 C 63.66652297973633 38.26181030273438 62.87855529785156 41.81964111328125 61.32448577880859 45.16915893554688 C 59.82177352905273 48.40800094604492 57.6695556640625 51.31764984130859 54.92759323120117 53.81729125976562 C 52.18232345581055 56.31993865966797 48.98470306396484 58.28512191772461 45.42355346679688 59.65824127197266 C 41.73406600952148 61.08084106445312 37.81417465209961 61.80215835571289 33.77275466918945 61.80215835571289 Z" stroke="none"/>
      <path d="M 33.77275466918945 61.30215835571289 C 37.75242614746094 61.30215835571289 41.61179351806641 60.59210205078125 45.2436637878418 59.19171905517578 C 48.7466926574707 57.84101104736328 51.89151382446289 55.90847015380859 54.59074401855469 53.44778060913086 C 57.28336334228516 50.99312973022461 59.39631271362305 48.13700103759766 60.87092590332031 44.95872116088867 C 62.39417266845703 41.67562103271484 63.16652297973633 38.1885986328125 63.16652297973633 34.59450912475586 C 63.16652297973633 27.90151023864746 60.42865371704102 21.49850082397461 55.4572639465332 16.56497001647949 L 55.1558723449707 16.2658805847168 L 55.16176605224609 15.84131050109863 C 55.16388320922852 15.68796062469482 55.14452362060547 15.53067970275879 55.10424423217773 15.37392044067383 L 51.90268325805664 2.921090126037598 C 51.61649322509766 1.807940125465393 50.29944610595703 1.00000011920929 48.77103424072266 1.00000011920929 C 48.02404403686523 1.00000011920929 47.31906509399414 1.196750164031982 46.73227310180664 1.568980097770691 L 36.86587524414062 7.827490329742432 L 36.58551406860352 8.005330085754395 L 36.25447463989258 7.980180263519287 C 35.43478393554688 7.917900085449219 34.59981536865234 7.886330127716064 33.77275466918945 7.886330127716064 C 27.96075439453125 7.886330127716064 22.3415641784668 9.425060272216797 17.52264404296875 12.3361701965332 L 17.2155933380127 12.52165985107422 L 16.86064338684082 12.46967029571533 L 4.78080415725708 10.70026016235352 C 4.573054313659668 10.6697998046875 4.363014221191406 10.65435981750488 4.156524181365967 10.65435981750488 C 2.98151421546936 10.65435981750488 1.905274271965027 11.15001010894775 1.3477942943573 11.94789028167725 C 1.096394300460815 12.30770969390869 0.8514242172241211 12.88603019714355 1.112164258956909 13.59792995452881 L 5.578494071960449 25.79812049865723 C 5.597984313964844 25.85135078430176 5.620124340057373 25.90476989746094 5.644294261932373 25.95688056945801 L 5.812934398651123 26.32037925720215 L 5.683894157409668 26.69973945617676 C 4.81766414642334 29.24645042419434 4.378444194793701 31.90262985229492 4.378444194793701 34.59450912475586 C 4.378444194793701 38.18857955932617 5.150824069976807 41.67560195922852 6.674114227294922 44.95870971679688 C 8.148774147033691 48.13698196411133 10.261794090271 50.99311065673828 12.95448398590088 53.44778060913086 C 15.65378379821777 55.9084587097168 18.79866409301758 57.84099960327148 22.30175399780273 59.19171905517578 C 25.93367385864258 60.59210205078125 29.7930850982666 61.30215835571289 33.77275466918945 61.30215835571289 M 33.77275466918945 62.30215835571289 C 16.98661422729492 62.30215835571289 3.378444194793701 49.89706039428711 3.378444194793701 34.59450912475586 C 3.378444194793701 31.73359107971191 3.854084253311157 28.97394943237305 4.73716402053833 26.37771987915039 C 4.701544284820557 26.30093955993652 4.668904304504395 26.22237014770508 4.639444351196289 26.14190101623535 L 0.1731142401695251 13.94169998168945 C -0.6270506978034973 11.75705909729004 1.457158446311951 9.654360771179199 4.156520843505859 9.654360771179199 C 4.408336639404297 9.654360771179199 4.665177822113037 9.672624588012695 4.925864219665527 9.710840225219727 L 17.00557518005371 11.4802303314209 C 21.81175422668457 8.576809883117676 27.57528495788574 6.886330127716064 33.77275466918945 6.886330127716064 C 34.63440322875977 6.886330127716064 35.48674392700195 6.918970108032227 36.33022308349609 6.983050346374512 L 46.19662475585938 0.7245401740074158 C 46.97914886474609 0.2281410098075867 47.88349151611328 3.436279314428248e-07 48.77103042602539 3.436279314428248e-07 C 50.6453971862793 3.436279314428248e-07 52.44565582275391 1.016957998275757 52.87118530273438 2.67209005355835 L 56.0727424621582 15.12491989135742 C 56.13651275634766 15.37306022644043 56.16496276855469 15.61717987060547 56.16166305541992 15.85517024993896 C 61.13241577148438 20.78805923461914 64.16652679443359 27.36795043945312 64.16652679443359 34.59450912475586 C 64.16652679443359 49.89706039428711 50.55889511108398 62.30215835571289 33.77275466918945 62.30215835571289 Z" stroke="none" fill="#707070"/>
    </g>
  </g>
  <ellipse id="타원_27" data-name="타원 27" cx="8.046" cy="5.066" rx="8.046" ry="5.066" transform="matrix(0.951, 0.309, -0.309, 0.951, 37.394, 71.884)" fill="#a5a5a5"/>
  <ellipse id="타원_28" data-name="타원 28" cx="2.98" cy="2.98" rx="2.98" ry="2.98" transform="translate(52.554 42.769) rotate(-7)" fill="#dcefea"/>
  <ellipse id="타원_29" data-name="타원 29" cx="2.98" cy="2.98" rx="2.98" ry="2.98" transform="translate(63.781 39.201) rotate(-7)" fill="#dcefea"/>
  <g id="마스크_그룹_1" data-name="마스크 그룹 1" transform="matrix(0.998, -0.07, 0.07, 0.998, 20.564, 4.476)" clip-path="url(#clip-path)">
    <ellipse id="타원_30" data-name="타원 30" cx="22.051" cy="20.263" rx="22.051" ry="20.263" transform="matrix(1, -0.017, 0.017, 1, 19.119, -9.496)" fill="#a5a5a5"/>
    <ellipse id="타원_25" data-name="타원 25" cx="22.051" cy="20.263" rx="22.051" ry="20.263" transform="matrix(1, -0.017, 0.017, 1, -11.275, 0.635)" fill="#a5a5a5"/>
  </g>
  <g id="그룹_159" data-name="그룹 159" transform="matrix(0.998, -0.07, 0.07, 0.998, 20.564, 4.476)">
    <g id="합치기_3-3" data-name="합치기 3" transform="translate(0 0)" fill="none">
      <path d="M3.378,34.595a25.453,25.453,0,0,1,1.359-8.217q-.053-.115-.1-.236L.173,13.942c-.875-2.388,1.7-4.679,4.753-4.231l12.08,1.769A32.378,32.378,0,0,1,33.773,6.886q1.292,0,2.557.1L46.2.725C48.632-.82,52.244.233,52.871,2.672l3.2,12.453a2.772,2.772,0,0,1,.089.73,26.319,26.319,0,0,1,8,18.739c0,15.3-13.608,27.708-30.394,27.708S3.378,49.9,3.378,34.595Z" stroke="none"/>
      <path d="M 33.77275466918945 61.30215835571289 C 37.75242614746094 61.30215835571289 41.61179351806641 60.59210205078125 45.2436637878418 59.19171905517578 C 48.7466926574707 57.84101104736328 51.89151382446289 55.90847015380859 54.59074401855469 53.44778060913086 C 57.28336334228516 50.99312973022461 59.39631271362305 48.13700103759766 60.87092590332031 44.95872116088867 C 62.39417266845703 41.67562103271484 63.16652297973633 38.1885986328125 63.16652297973633 34.59450912475586 C 63.16652297973633 27.90151023864746 60.42865371704102 21.49850082397461 55.4572639465332 16.56497001647949 L 55.1558723449707 16.2658805847168 L 55.16176605224609 15.84131050109863 C 55.16388320922852 15.68796062469482 55.14452362060547 15.53067970275879 55.10424423217773 15.37392044067383 L 51.90268325805664 2.921090126037598 C 51.61649322509766 1.807940125465393 50.29944610595703 1.00000011920929 48.77103424072266 1.00000011920929 C 48.02404403686523 1.00000011920929 47.31906509399414 1.196750164031982 46.73227310180664 1.568980097770691 L 36.86587524414062 7.827490329742432 L 36.58551406860352 8.005330085754395 L 36.25447463989258 7.980180263519287 C 35.43478393554688 7.917900085449219 34.59981536865234 7.886330127716064 33.77275466918945 7.886330127716064 C 27.96075439453125 7.886330127716064 22.3415641784668 9.425060272216797 17.52264404296875 12.3361701965332 L 17.2155933380127 12.52165985107422 L 16.86064338684082 12.46967029571533 L 4.78080415725708 10.70026016235352 C 4.573054313659668 10.6697998046875 4.363014221191406 10.65435981750488 4.156524181365967 10.65435981750488 C 2.98151421546936 10.65435981750488 1.905274271965027 11.15001010894775 1.3477942943573 11.94789028167725 C 1.096394300460815 12.30770969390869 0.8514242172241211 12.88603019714355 1.112164258956909 13.59792995452881 L 5.578494071960449 25.79812049865723 C 5.597984313964844 25.85135078430176 5.620124340057373 25.90476989746094 5.644294261932373 25.95688056945801 L 5.812934398651123 26.32037925720215 L 5.683894157409668 26.69973945617676 C 4.81766414642334 29.24645042419434 4.378444194793701 31.90262985229492 4.378444194793701 34.59450912475586 C 4.378444194793701 38.18857955932617 5.150824069976807 41.67560195922852 6.674114227294922 44.95870971679688 C 8.148774147033691 48.13698196411133 10.261794090271 50.99311065673828 12.95448398590088 53.44778060913086 C 15.65378379821777 55.9084587097168 18.79866409301758 57.84099960327148 22.30175399780273 59.19171905517578 C 25.93367385864258 60.59210205078125 29.7930850982666 61.30215835571289 33.77275466918945 61.30215835571289 M 33.77275466918945 62.30215835571289 C 16.98661422729492 62.30215835571289 3.378444194793701 49.89706039428711 3.378444194793701 34.59450912475586 C 3.378444194793701 31.73359107971191 3.854084253311157 28.97394943237305 4.73716402053833 26.37771987915039 C 4.701544284820557 26.30093955993652 4.668904304504395 26.22237014770508 4.639444351196289 26.14190101623535 L 0.1731142401695251 13.94169998168945 C -0.6270506978034973 11.75705909729004 1.457158446311951 9.654360771179199 4.156520843505859 9.654360771179199 C 4.408336639404297 9.654360771179199 4.665177822113037 9.672624588012695 4.925864219665527 9.710840225219727 L 17.00557518005371 11.4802303314209 C 21.81175422668457 8.576809883117676 27.57528495788574 6.886330127716064 33.77275466918945 6.886330127716064 C 34.63440322875977 6.886330127716064 35.48674392700195 6.918970108032227 36.33022308349609 6.983050346374512 L 46.19662475585938 0.7245401740074158 C 46.97914886474609 0.2281410098075867 47.88349151611328 3.436279314428248e-07 48.77103042602539 3.436279314428248e-07 C 50.6453971862793 3.436279314428248e-07 52.44565582275391 1.016957998275757 52.87118530273438 2.67209005355835 L 56.0727424621582 15.12491989135742 C 56.13651275634766 15.37306022644043 56.16496276855469 15.61717987060547 56.16166305541992 15.85517024993896 C 61.13241577148438 20.78805923461914 64.16652679443359 27.36795043945312 64.16652679443359 34.59450912475586 C 64.16652679443359 49.89706039428711 50.55889511108398 62.30215835571289 33.77275466918945 62.30215835571289 Z" stroke="none" fill="#707070"/>
    </g>
  </g>
</svg>
