<svg xmlns="http://www.w3.org/2000/svg" width="188" height="66" viewBox="0 0 188 66">
  <g id="그룹_298" data-name="그룹 298" transform="translate(-968.5 -7724)">
    <g id="apple" transform="translate(945.707 7737)">
      <path id="패스_202" data-name="패스 202" d="M257.112,0a7.349,7.349,0,0,0-4.852,2.489,6.885,6.885,0,0,0-1.743,5.105.264.264,0,0,0,.241.228c.112.009.227.013.341.013a6.216,6.216,0,0,0,4.579-2.349A7.259,7.259,0,0,0,257.385.235.265.265,0,0,0,257.112,0Z" transform="translate(-191.026 0)" fill="#fff"/>
    </g>
    <g id="그룹_297" data-name="그룹 297">
      <g id="그룹_249" data-name="그룹 249" transform="translate(-87.5 7321)">
        <g id="apple-seeklogo.com" transform="translate(1080 416)">
          <path id="패스_78" data-name="패스 78" d="M21.784,17.018a7.08,7.08,0,0,0,4.3,6.481,17.53,17.53,0,0,1-2.217,4.556c-1.335,1.951-2.721,3.9-4.9,3.936-2.145.04-2.835-1.272-5.287-1.272s-3.218,1.232-5.248,1.311c-2.107.08-3.711-2.11-5.058-4.054C.619,24-1.483,16.738,1.34,11.837A7.842,7.842,0,0,1,7.968,7.822c2.069-.039,4.022,1.392,5.287,1.392s3.637-1.721,6.132-1.469a7.483,7.483,0,0,1,5.859,3.177,7.244,7.244,0,0,0-3.462,6.095m-4.031-11.9A7.056,7.056,0,0,0,19.419,0,7.181,7.181,0,0,0,14.7,2.428,6.7,6.7,0,0,0,13,7.383a5.941,5.941,0,0,0,4.752-2.268" transform="translate(0)" fill="none"/>
        </g>
        <g id="사각형_25" data-name="사각형 25" transform="translate(1056 403)" fill="none" stroke="#fff" stroke-width="2">
          <rect width="188" height="66" rx="33" stroke="none"/>
          <rect x="1" y="1" width="186" height="64" rx="32" fill="none"/>
        </g>
        <text id="App_Store" data-name="App Store" transform="translate(1173 442)" fill="#fff" font-size="20" font-family="AppleSDGothicNeo-Regular, Apple SD Gothic Neo" letter-spacing="0.01em"><tspan x="-42.72" y="0">App Store</tspan></text>
      </g>
      <path id="패스_201" data-name="패스 201" d="M48.139,125.577c-2.7,4.692-.983,11.812,2,16.129,1.489,2.158,3,4.1,5.062,4.1l.118,0a6.242,6.242,0,0,0,2.349-.627,6.422,6.422,0,0,1,2.783-.661,6.042,6.042,0,0,1,2.649.639,5.6,5.6,0,0,0,2.538.61c2.326-.043,3.755-2.134,5.015-3.978a17.656,17.656,0,0,0,2.2-4.51l.009-.028a.263.263,0,0,0-.139-.322l-.019-.008a6.68,6.68,0,0,1-4.041-6.119,6.88,6.88,0,0,1,3.243-5.75l.026-.016A.263.263,0,0,0,72,124.66a7.543,7.543,0,0,0-5.937-3.231c-.169-.017-.343-.025-.518-.025a10.332,10.332,0,0,0-3.726.933,5.979,5.979,0,0,1-1.785.534,5.831,5.831,0,0,1-1.846-.541,8.931,8.931,0,0,0-3.254-.828h-.083A7.977,7.977,0,0,0,48.139,125.577Z" transform="translate(945.707 7623.228)" fill="#fff"/>
    </g>
  </g>
</svg>
