<svg xmlns="http://www.w3.org/2000/svg" width="44.5" height="44.5" viewBox="0 0 44.5 44.5">
  <g id="그룹_296" data-name="그룹 296" transform="translate(-1444.5 -3205.5)">
    <g id="그룹_274" data-name="그룹 274" transform="translate(409.5 -148.5)">
      <g id="review" transform="translate(1035 3354)">
        <g id="그룹_259" data-name="그룹 259">
          <g id="그룹_258" data-name="그룹 258">
            <path id="패스_211" data-name="패스 211" d="M40.589,0H3.911A3.916,3.916,0,0,0,0,3.911V40.589A3.916,3.916,0,0,0,3.911,44.5H40.589A3.916,3.916,0,0,0,44.5,40.589V3.911A3.916,3.916,0,0,0,40.589,0Zm1.3,40.589a1.305,1.305,0,0,1-1.3,1.3H3.911a1.305,1.305,0,0,1-1.3-1.3V12.734H41.893Zm0-27.854H2.607V3.911a1.305,1.305,0,0,1,1.3-1.3H40.589a1.305,1.305,0,0,1,1.3,1.3Z" fill="#87d5d6"/>
          </g>
        </g>
        <g id="그룹_265" data-name="그룹 265" transform="translate(4.532 18.505)">
          <g id="그룹_264" data-name="그룹 264">
            <path id="패스_214" data-name="패스 214" d="M73.259,211H62.114a1.114,1.114,0,1,0,0,2.229H73.259a1.114,1.114,0,1,0,0-2.229Z" transform="translate(-61 -211)" fill="#87d5d6"/>
          </g>
        </g>
        <g id="그룹_267" data-name="그룹 267" transform="translate(4.532 26.397)">
          <g id="그룹_266" data-name="그룹 266">
            <path id="패스_215" data-name="패스 215" d="M72.7,301H62.672c-.923,0-1.672.5-1.672,1.115s.748,1.114,1.672,1.114H72.7c.923,0,1.672-.5,1.672-1.114S73.625,301,72.7,301Z" transform="translate(-61 -301)" fill="#87d5d6"/>
          </g>
        </g>
        <g id="그룹_269" data-name="그룹 269" transform="translate(4.532 34.29)">
          <g id="그룹_268" data-name="그룹 268">
            <path id="패스_216" data-name="패스 216" d="M71.481,391H62.5c-.827,0-1.5.5-1.5,1.115s.67,1.114,1.5,1.114h8.984c.827,0,1.5-.5,1.5-1.114S72.308,391,71.481,391Z" transform="translate(-61 -391)" fill="#87d5d6"/>
          </g>
        </g>
        <g id="그룹_272" data-name="그룹 272" transform="translate(4.532 11.219)">
          <g id="그룹_264-2" data-name="그룹 264">
            <path id="패스_214-2" data-name="패스 214" d="M74.584,211H62.235a1.12,1.12,0,1,0,0,2.229H74.584a1.12,1.12,0,1,0,0-2.229Z" transform="translate(-61 -211)" fill="#87d5d6"/>
          </g>
        </g>
        <g id="그룹_275" data-name="그룹 275" transform="translate(4.532 11.219)">
          <g id="그룹_264-3" data-name="그룹 264">
            <path id="패스_214-3" data-name="패스 214" d="M74.584,211H62.235a1.12,1.12,0,1,0,0,2.229H74.584a1.12,1.12,0,1,0,0-2.229Z" transform="translate(-61 -211)" fill="#87d5d6"/>
          </g>
        </g>
      </g>
      <rect id="사각형_102" data-name="사각형 102" width="20" height="13" transform="translate(1055.033 3376.797)" fill="none"/>
      <rect id="사각형_101" data-name="사각형 101" width="17" height="13" transform="translate(1057.033 3359.985)" fill="none"/>
    </g>
    <g id="그룹_283" data-name="그룹 283">
      <g id="사각형_102-2" data-name="사각형 102" transform="translate(1464.033 3229.812)" fill="none" stroke="#87d5d6" stroke-linecap="round" stroke-linejoin="round" stroke-width="2">
        <rect width="20" height="13" stroke="none"/>
        <rect x="1" y="1" width="18" height="11" fill="none"/>
      </g>
      <g id="사각형_101-2" data-name="사각형 101" transform="translate(1466.033 3213)" fill="none" stroke="#87d5d6" stroke-linecap="round" stroke-linejoin="round" stroke-width="2">
        <rect width="17" height="13" stroke="none"/>
        <rect x="1" y="1" width="15" height="11" fill="none"/>
      </g>
    </g>
  </g>
</svg>
