<svg xmlns="http://www.w3.org/2000/svg" width="65.736" height="47.012" viewBox="0 0 65.736 47.012">
  <g id="customer-reviews" transform="translate(0 -83.699)">
    <g id="그룹_250" data-name="그룹 250" transform="translate(0 83.699)">
      <path id="패스_203" data-name="패스 203" d="M59.9,96.921a21.247,21.247,0,0,0-13.632-4.728,22.256,22.256,0,0,0-8.795,1.774,17.374,17.374,0,0,0-6.448-7.041A21.681,21.681,0,0,0,19.466,83.7,21.247,21.247,0,0,0,5.833,88.427,15.343,15.343,0,0,0,0,100.269,15.174,15.174,0,0,0,4.821,111.2l.053,9.874a1.425,1.425,0,0,0,.666,1.25,1.319,1.319,0,0,0,1.33.014l9.43-5.717a23.08,23.08,0,0,0,3.167.219h0a22.333,22.333,0,0,0,8.783-1.774,16.613,16.613,0,0,0,4.389,5.541,21.247,21.247,0,0,0,13.633,4.728,23.1,23.1,0,0,0,3.183-.221l9.441,5.4a1.124,1.124,0,0,0,1.315-.039,1.517,1.517,0,0,0,.652-1.241l.053-9.543a15.175,15.175,0,0,0,4.821-10.931A15.344,15.344,0,0,0,59.9,96.921Zm-40.437,17h0a20.587,20.587,0,0,1-3.262-.26,1.264,1.264,0,0,0-1.035.3l-7.625,4.623L7.5,110.549c0-.029,0-.059,0-.088a1.5,1.5,0,0,0-.483-1.054,12.324,12.324,0,0,1-4.333-9.138c0-7.53,7.529-13.656,16.782-13.656,6.856,0,13.054,3.479,15.582,8.6a19.249,19.249,0,0,0-2.41,1.71,15.344,15.344,0,0,0-5.833,11.843,14.435,14.435,0,0,0,.454,3.593A19.816,19.816,0,0,1,19.466,113.925ZM58.72,117.9a1.506,1.506,0,0,0-.483,1.054c0,.027,0,.053,0,.079l-.043,7.786-7.65-4.379a1.259,1.259,0,0,0-1.011-.283,20.557,20.557,0,0,1-3.262.26c-7.578,0-14-4.109-16.075-9.732-.009-.027-.02-.054-.03-.081a11.281,11.281,0,0,1-.678-3.843c0-4.845,3.118-9.108,7.805-11.533l.01,0a1.3,1.3,0,0,0,.151-.078,19.6,19.6,0,0,1,8.816-2.041c9.254,0,16.782,6.126,16.782,13.656A12.324,12.324,0,0,1,58.72,117.9Z" transform="translate(0 -83.699)" fill="#87d5d6"/>
      <path id="패스_204" data-name="패스 204" d="M296.706,222.2H277.767a1.612,1.612,0,0,0,0,3.224h18.939a1.612,1.612,0,0,0,0-3.224Z" transform="translate(-242.019 -202.154)" fill="#87d5d6"/>
      <path id="패스_205" data-name="패스 205" d="M296.706,267.469H277.767a1.612,1.612,0,0,0,0,3.224h18.939a1.612,1.612,0,0,0,0-3.224Z" transform="translate(-242.019 -240.877)" fill="#87d5d6"/>
    </g>
    <g id="그룹_251" data-name="그룹 251" transform="translate(0 83.699)">
      <path id="패스_206" data-name="패스 206" d="M59.9,96.921a21.247,21.247,0,0,0-13.632-4.728,22.256,22.256,0,0,0-8.795,1.774,17.374,17.374,0,0,0-6.448-7.041A21.681,21.681,0,0,0,19.466,83.7,21.247,21.247,0,0,0,5.833,88.427,15.343,15.343,0,0,0,0,100.269,15.174,15.174,0,0,0,4.821,111.2l.053,9.874a1.425,1.425,0,0,0,.666,1.25,1.319,1.319,0,0,0,1.33.014l9.43-5.717a23.08,23.08,0,0,0,3.167.219h0a22.333,22.333,0,0,0,8.783-1.774,16.613,16.613,0,0,0,4.389,5.541,21.247,21.247,0,0,0,13.633,4.728,23.1,23.1,0,0,0,3.183-.221l9.441,5.4a1.124,1.124,0,0,0,1.315-.039,1.517,1.517,0,0,0,.652-1.241l.053-9.543a15.175,15.175,0,0,0,4.821-10.931A15.344,15.344,0,0,0,59.9,96.921Zm-40.437,17h0a20.587,20.587,0,0,1-3.262-.26,1.264,1.264,0,0,0-1.035.3l-7.625,4.623L7.5,110.549c0-.029,0-.059,0-.088a1.5,1.5,0,0,0-.483-1.054,12.324,12.324,0,0,1-4.333-9.138c0-7.53,7.529-13.656,16.782-13.656,6.856,0,13.054,3.479,15.582,8.6a19.249,19.249,0,0,0-2.41,1.71,15.344,15.344,0,0,0-5.833,11.843,14.435,14.435,0,0,0,.454,3.593A19.816,19.816,0,0,1,19.466,113.925ZM58.72,117.9a1.506,1.506,0,0,0-.483,1.054c0,.027,0,.053,0,.079l-.043,7.786-7.65-4.379a1.259,1.259,0,0,0-1.011-.283,20.557,20.557,0,0,1-3.262.26c-7.578,0-14-4.109-16.075-9.732-.009-.027-.02-.054-.03-.081a11.281,11.281,0,0,1-.678-3.843c0-7.677,7.647-13.656,16.783-13.656s16.783,6.126,16.783,13.656A12.324,12.324,0,0,1,58.72,117.9Z" transform="translate(0 -83.699)" fill="#87d5d6"/>
      <path id="패스_207" data-name="패스 207" d="M296.706,222.2H277.767a1.612,1.612,0,0,0,0,3.224h18.939a1.612,1.612,0,0,0,0-3.224Z" transform="translate(-242.019 -202.154)" fill="#87d5d6"/>
      <path id="패스_208" data-name="패스 208" d="M296.706,267.469H277.767a1.612,1.612,0,0,0,0,3.224h18.939a1.612,1.612,0,0,0,0-3.224Z" transform="translate(-242.019 -240.877)" fill="#87d5d6"/>
    </g>
  </g>
</svg>
