<svg xmlns="http://www.w3.org/2000/svg" width="48.584" height="44.866" viewBox="0 0 48.584 44.866">
  <g id="XMLID_1117_" transform="translate(0.5 -19.5)">
    <path id="XMLID_1253_" d="M55.725,45.635A7.673,7.673,0,0,0,48.757,38a9.789,9.789,0,0,0-18.069-3.155,7.672,7.672,0,0,0-13.046,4.146A10.612,10.612,0,0,0,17.5,59.321a10.611,10.611,0,0,0,19.978,6.657A9.1,9.1,0,0,0,50.188,53a7.675,7.675,0,0,0,5.537-7.37Z" transform="translate(-9.071 -9.071)" fill="none" stroke="#87d5d6" stroke-width="1"/>
    <circle id="XMLID_1252_" cx="3.346" cy="3.346" r="3.346" transform="translate(29.831 45.651)" fill="none" stroke="#87d5d6" stroke-width="1"/>
    <circle id="XMLID_1251_" cx="1.859" cy="1.859" r="1.859" transform="translate(34.811 33.36)" fill="none" stroke="#87d5d6" stroke-width="1"/>
    <circle id="XMLID_1250_" cx="1.859" cy="1.859" r="1.859" transform="translate(16.089 53.37)" fill="none" stroke="#87d5d6" stroke-width="1"/>
    <circle id="XMLID_1130_" cx="5.328" cy="5.328" r="5.328" transform="translate(10.41 38.826) rotate(-45)" fill="none" stroke="#87d5d6" stroke-width="1"/>
    <g id="XMLID_1653_" transform="translate(0 20)">
      <path id="XMLID_1757_" d="M53.339,30.75a8.581,8.581,0,0,0-4.865-2.66,10.718,10.718,0,0,0-19.02-3.727,8.6,8.6,0,0,0-10.893.258A8.615,8.615,0,0,0,15.786,29.2a11.488,11.488,0,0,0-6.873,6.447.929.929,0,0,0,1.714.719,9.77,9.77,0,0,1,6.223-5.554.929.929,0,0,0,.658-.744,6.742,6.742,0,0,1,11.465-3.643.929.929,0,0,0,1.464-.181,8.859,8.859,0,0,1,16.354,2.854.929.929,0,0,0,.829.756,6.706,6.706,0,0,1,6.123,6.714,6.774,6.774,0,0,1-4.866,6.477.929.929,0,0,0-.433,1.514A8.171,8.171,0,0,1,37.031,56.2a.929.929,0,0,0-1.445.3,9.682,9.682,0,0,1-18.228-6.074.929.929,0,0,0-.64-1.07,9.658,9.658,0,0,1-6.092-5.515.929.929,0,1,0-1.714.719A11.511,11.511,0,0,0,15.4,50.873,11.543,11.543,0,0,0,26.852,63.866a11.537,11.537,0,0,0,9.871-5.56A10.03,10.03,0,0,0,50.646,44.354a8.688,8.688,0,0,0,3.2-2.577,8.6,8.6,0,0,0-.5-11.028Z" transform="translate(-8.019 -20)" fill="#87d5d6" stroke="#87d5d6" stroke-width="1"/>
      <path id="XMLID_1760_" d="M291.909,271.2a.929.929,0,1,0,0,1.859h1.032a4.248,4.248,0,0,0,.566,1.362l-.731.731a.929.929,0,1,0,1.314,1.314l.731-.731a4.249,4.249,0,0,0,1.362.566v1.032a.929.929,0,1,0,1.859,0v-1.032a4.25,4.25,0,0,0,1.362-.566l.731.731a.929.929,0,0,0,1.314-1.314l-.731-.731a4.252,4.252,0,0,0,.566-1.362h1.032a.929.929,0,0,0,0-1.859h-1.032a4.248,4.248,0,0,0-.566-1.362l.731-.731a.929.929,0,1,0-1.314-1.314l-.731.731a4.25,4.25,0,0,0-1.362-.566v-1.032a.929.929,0,0,0-1.859,0v1.032a4.251,4.251,0,0,0-1.362.566l-.731-.731a.929.929,0,1,0-1.314,1.314l.731.731a4.252,4.252,0,0,0-.566,1.362Zm5.2-1.487a2.416,2.416,0,1,1-2.416,2.416A2.419,2.419,0,0,1,297.114,269.717Z" transform="translate(-263.937 -243.137)" fill="#87d5d6" stroke="#87d5d6" stroke-width="1"/>
      <path id="XMLID_1767_" d="M367.352,159.333a2.788,2.788,0,1,0-2.788-2.788A2.791,2.791,0,0,0,367.352,159.333Zm0-3.717a.929.929,0,1,1-.929.929A.93.93,0,0,1,367.352,155.616Z" transform="translate(-330.682 -141.326)" fill="#87d5d6" stroke="#87d5d6" stroke-width="1"/>
      <path id="XMLID_1770_" d="M163.119,371.85a2.788,2.788,0,1,0,2.788-2.788A2.791,2.791,0,0,0,163.119,371.85Zm3.717,0a.929.929,0,1,1-.929-.929A.93.93,0,0,1,166.837,371.85Z" transform="translate(-147.959 -336.621)" fill="#87d5d6" stroke="#87d5d6" stroke-width="1"/>
      <path id="XMLID_1775_" d="M89.087,123.8H87.105a.929.929,0,0,0-1.855.072v1.715a.929.929,0,0,0,1.855.072h1.982a6.226,6.226,0,0,0,1.158,2.787l-1.4,1.4a.929.929,0,0,0-1.261,1.363l1.212,1.212a.929.929,0,0,0,1.363-1.261l1.4-1.4a6.225,6.225,0,0,0,2.787,1.157v2a.929.929,0,0,0,.2,1.836h1.692a.929.929,0,0,0,0-1.859H96.2v-1.978a6.227,6.227,0,0,0,2.787-1.157l1.4,1.4a.929.929,0,0,0,1.363,1.261l1.212-1.212a.929.929,0,0,0-1.261-1.363l-1.4-1.4a6.225,6.225,0,0,0,1.157-2.787h1.982a.929.929,0,0,0,1.855-.072v-1.715a.929.929,0,0,0-1.855-.072h-1.982a6.226,6.226,0,0,0-1.157-2.787l1.4-1.4a.929.929,0,0,0,1.261-1.363l-1.212-1.212a.929.929,0,0,0-1.363,1.261l-1.4,1.4A6.224,6.224,0,0,0,96.2,118.54v-1.982a.929.929,0,0,0-.072-1.855H94.418a.929.929,0,0,0-.072,1.855v1.982a6.226,6.226,0,0,0-2.787,1.157l-1.4-1.4a.929.929,0,0,0-1.363-1.261l-1.212,1.212a.929.929,0,0,0,1.261,1.363l1.4,1.4a6.225,6.225,0,0,0-1.157,2.787Zm6.188-3.47a4.4,4.4,0,1,1-4.4,4.4A4.4,4.4,0,0,1,95.275,120.329Z" transform="translate(-77.327 -105.902)" fill="#87d5d6" stroke="#87d5d6" stroke-width="1"/>
      <path id="XMLID_1776_" d="M246.729,353.9a.93.93,0,1,0,.657.272A.932.932,0,0,0,246.729,353.9Z" transform="translate(-222.956 -322.868)" fill="#87d5d6" stroke="#87d5d6" stroke-width="1"/>
      <path id="XMLID_1777_" d="M320.736,95.586a.929.929,0,1,0-.657.272A.936.936,0,0,0,320.736,95.586Z" transform="translate(-289.489 -87.123)" fill="#87d5d6" stroke="#87d5d6" stroke-width="1"/>
      <path id="XMLID_1778_" d="M1.586,227.916A.93.93,0,0,0,.272,226.6a.93.93,0,0,0,.657,1.587A.936.936,0,0,0,1.586,227.916Z" transform="translate(0 -207.154)" fill="#87d5d6" stroke="#87d5d6" stroke-width="1"/>
    </g>
  </g>
</svg>
