<svg xmlns="http://www.w3.org/2000/svg" width="30" height="30" viewBox="0 0 30 30">
  <g id="그룹_306" data-name="그룹 306" transform="translate(6547 -8757)">
    <circle id="타원_162" data-name="타원 162" cx="15" cy="15" r="15" transform="translate(-6547 8757)" fill="#87d5d6"/>
    <g id="그룹_304" data-name="그룹 304" transform="translate(-6536.315 8765.626)">
      <g id="facebook-logo" transform="translate(0 0)">
        <path id="패스_33" data-name="패스 33" d="M69.917,3.388a.7.7,0,0,0,.7-.7A1.282,1.282,0,0,1,71.9,1.405h1.984a.7.7,0,0,0,0-1.405H71.9a2.689,2.689,0,0,0-2.686,2.686A.7.7,0,0,0,69.917,3.388Z" transform="translate(-65.271)" fill="#fff"/>
        <path id="패스_34" data-name="패스 34" d="M41.671,59.627H34.006a.7.7,0,1,0,0,1.4H36.85v7.277a.751.751,0,0,0,1.5,0V61.032h3.322a.7.7,0,1,0,0-1.4Z" transform="translate(-33.256 -55.042)" fill="#fff"/>
      </g>
    </g>
  </g>
</svg>
