<svg xmlns="http://www.w3.org/2000/svg" width="51.867" height="47.463" viewBox="0 0 51.867 47.463">
  <g id="hospital" transform="translate(0 -21.739)">
    <path id="패스_209" data-name="패스 209" d="M51.413,44.8,29.363,23.133a4.915,4.915,0,0,0-6.858,0L.454,44.8a1.52,1.52,0,0,0,2.13,2.168L4.3,45.286v17.3A6.621,6.621,0,0,0,10.914,69.2H40.953a6.621,6.621,0,0,0,6.614-6.614v-17.3l1.716,1.687a1.52,1.52,0,1,0,2.13-2.168ZM44.528,62.588a3.579,3.579,0,0,1-3.575,3.575H10.914A3.579,3.579,0,0,1,7.34,62.588V42.3l17.3-17a1.83,1.83,0,0,1,.607-.4,1.867,1.867,0,0,1,1.851.272,1.833,1.833,0,0,1,.139.124l17.3,17v20.29Z" transform="translate(0)" fill="#87d5d6"/>
    <path id="패스_210" data-name="패스 210" d="M154.065,183.5v4.89h-4.89a1.52,1.52,0,0,0-1.52,1.52v6.065a1.52,1.52,0,0,0,1.52,1.52h4.89v4.89a1.52,1.52,0,0,0,1.52,1.52h6.065a1.52,1.52,0,0,0,1.52-1.52v-4.89h4.89a1.52,1.52,0,0,0,1.52-1.52v-6.065a1.52,1.52,0,0,0-1.52-1.52h-4.89V183.5a1.52,1.52,0,0,0-1.52-1.52h-6.065A1.52,1.52,0,0,0,154.065,183.5Zm3.039,6.41v-4.89h3.026v4.89a1.52,1.52,0,0,0,1.52,1.52h4.89v3.026h-4.89a1.52,1.52,0,0,0-1.52,1.52v4.89H157.1v-4.89a1.52,1.52,0,0,0-1.52-1.52h-4.89v-3.026h4.89A1.52,1.52,0,0,0,157.1,189.909Z" transform="translate(-132.697 -144.008)" fill="#87d5d6"/>
  </g>
</svg>
