<svg xmlns="http://www.w3.org/2000/svg" width="74.641" height="24.908" viewBox="0 0 74.641 24.908">
  <g id="그룹_230" data-name="그룹 230" transform="translate(-102.908 -143.652)">
    <path id="패스_122" data-name="패스 122" d="M120.634,158.589h-7.415c-3.667,0-6.651-2.193-6.651-5.86s2.984-5.86,6.651-5.86h7.415a1.581,1.581,0,0,0,0-3.161h-7.415c-5.419,0-9.811,3.6-9.811,9.021s4.392,9.021,9.811,9.021h7.415a1.58,1.58,0,0,0,0-3.161Z" fill="#87d5d6"/>
    <path id="패스_123" data-name="패스 123" d="M118.194,151.149h-6.605a1.58,1.58,0,1,0,0,3.16h6.605a1.58,1.58,0,0,0,0-3.161Z" fill="#9cf7ab"/>
    <path id="패스_124" data-name="패스 124" d="M166.92,143.652H154.672a1.58,1.58,0,1,0,0,3.16H166.92a1.58,1.58,0,0,0,0-3.16Z" fill="#9cf7ab"/>
    <path id="패스_125" data-name="패스 125" d="M159.834,152.294h0V148.94a1.581,1.581,0,0,0-3.161,0h0v3.354a1.581,1.581,0,0,0,3.16,0Z" fill="#87d5d6"/>
    <path id="패스_126" data-name="패스 126" d="M164.918,152.294h0V148.94a1.581,1.581,0,0,0-3.161,0h0v3.354a1.581,1.581,0,0,0,3.161,0Z" fill="#87d5d6"/>
    <path id="패스_127" data-name="패스 127" d="M166.92,154.7H154.672a1.581,1.581,0,0,0,0,3.161H166.92a1.581,1.581,0,0,0,0-3.161Z" fill="#9cf7ab"/>
    <circle id="타원_99" data-name="타원 99" cx="1.918" cy="1.918" r="1.918" transform="translate(111.893 162.875)" fill="#87d5d6"/>
    <path id="패스_128" data-name="패스 128" d="M123.134,165.4h-7.089a2.312,2.312,0,0,1-4.469,0h-7.088a1.58,1.58,0,0,0,0,3.16h18.646a1.58,1.58,0,0,0,0-3.161Z" fill="#90d4c2"/>
    <g id="그룹_229" data-name="그룹 229">
      <path id="패스_129" data-name="패스 129" d="M140.509,156.589h-5.415c-3.667,0-6.651-1.193-6.651-4.86s2.984-4.86,6.651-4.86h5.415a1.581,1.581,0,0,0,0-3.161h-5.415c-5.419,0-9.811,2.6-9.811,8.021s4.392,8.021,9.811,8.021h5.415a1.58,1.58,0,0,0,0-3.161Z" fill="#90d4c2"/>
    </g>
    <circle id="타원_100" data-name="타원 100" cx="1.918" cy="1.918" r="1.918" transform="translate(145.961 149.811)" fill="#90d4c2"/>
    <path id="패스_130" data-name="패스 130" d="M147.274,158.17h0v-4.206a2.312,2.312,0,0,1,0-4.469v-4.206a1.58,1.58,0,1,0-3.161,0h0V158.17a1.58,1.58,0,0,0,3.161,0Z" fill="#87d5d6"/>
    <circle id="타원_101" data-name="타원 101" cx="1.918" cy="1.918" r="1.918" transform="translate(167.646 149.811)" fill="#9cf7ab"/>
    <path id="패스_131" data-name="패스 131" d="M170.17,145.289h0v4.206a2.312,2.312,0,0,1,0,4.469v4.206a1.58,1.58,0,0,0,3.16,0h0V145.289a1.58,1.58,0,1,0-3.16,0Z" fill="#90d4c2"/>
    <path id="패스_132" data-name="패스 132" d="M174.388,145.289h0V158.17a1.58,1.58,0,0,0,3.161,0h0V145.289a1.58,1.58,0,1,0-3.161,0Z" fill="#90d4c2"/>
    <path id="패스_133" data-name="패스 133" d="M173.873,165.554l-5.308-2.545v-2.762a1.581,1.581,0,0,0-3.161,0h0v2.762l-5.308,2.545a1.58,1.58,0,0,0,1.366,2.85h0l5.523-2.647,5.522,2.647h0a1.58,1.58,0,0,0,1.366-2.85Z" fill="#87d5d6"/>
    <path id="패스_134" data-name="패스 134" d="M145.658,168.56c0-3.668-2.984-4.511-6.651-4.511h-5.415a1.58,1.58,0,0,1,0-3.161h5.415c5.419,0,9.811,2.253,9.811,7.672Z" fill="#9cf7ab"/>
  </g>
</svg>
