<svg xmlns="http://www.w3.org/2000/svg" width="104" height="34.705" viewBox="0 0 104 34.705">
  <g id="그룹_299" data-name="그룹 299" transform="translate(-168 -8553)">
    <g id="그룹_233" data-name="그룹 233" transform="translate(65.092 8409.348)">
      <path id="패스_109" data-name="패스 109" d="M127.41,164.442H117.078c-5.109,0-9.267-3.056-9.267-8.165s4.158-8.165,9.267-8.165H127.41a2.2,2.2,0,0,0,0-4.4H117.078c-7.551,0-13.67,5.02-13.67,12.569s6.12,12.569,13.67,12.569H127.41a2.2,2.2,0,0,0,0-4.4Z" transform="translate(0.197 0.022)" fill="#87d5d6"/>
      <path id="패스_110" data-name="패스 110" d="M121.414,151.149h-9.2a2.2,2.2,0,1,0,0,4.4h9.2a2.2,2.2,0,0,0,0-4.4Z" transform="translate(2.793 2.949)" fill="#9cf7ab"/>
      <path id="패스_111" data-name="패스 111" d="M172.359,143.652H155.293a2.2,2.2,0,0,0,0,4.4h17.066a2.2,2.2,0,1,0,0-4.4Z" transform="translate(19.739 0)" fill="#9cf7ab"/>
      <path id="패스_112" data-name="패스 112" d="M161.077,154.219h0v-4.673a2.2,2.2,0,0,0-4.4,0h0v4.673a2.2,2.2,0,0,0,4.4,0Z" transform="translate(21.148 1.474)" fill="#87d5d6"/>
      <path id="패스_113" data-name="패스 113" d="M166.161,154.219h0v-4.673a2.2,2.2,0,0,0-4.4,0h0v4.673a2.2,2.2,0,0,0,4.4,0Z" transform="translate(23.148 1.474)" fill="#87d5d6"/>
      <path id="패스_114" data-name="패스 114" d="M172.359,154.7H155.293a2.2,2.2,0,0,0,0,4.4h17.066a2.2,2.2,0,0,0,0-4.4Z" transform="translate(19.739 4.346)" fill="#9cf7ab"/>
      <circle id="타원_96" data-name="타원 96" cx="2.673" cy="2.673" r="2.673" transform="translate(115.427 170.436)" fill="#87d5d6"/>
      <path id="패스_115" data-name="패스 115" d="M131.09,165.4h-9.877a3.221,3.221,0,0,1-6.227,0h-9.876a2.2,2.2,0,1,0,0,4.4h25.98a2.2,2.2,0,0,0,0-4.4Z" transform="translate(0 8.554)" fill="#90d4c2"/>
      <g id="그룹_227" data-name="그룹 227" transform="translate(134.084 143.73)">
        <path id="패스_116" data-name="패스 116" d="M146.5,161.656h-7.545c-5.109,0-9.267-1.662-9.267-6.772s4.158-6.772,9.267-6.772H146.5a2.2,2.2,0,0,0,0-4.4h-7.545c-7.55,0-13.67,3.627-13.67,11.176s6.12,11.176,13.67,11.176H146.5a2.2,2.2,0,0,0,0-4.4Z" transform="translate(-125.283 -143.708)" fill="#90d4c2"/>
      </g>
      <circle id="타원_97" data-name="타원 97" cx="2.673" cy="2.673" r="2.673" transform="translate(162.896 152.234)" fill="#90d4c2"/>
      <path id="패스_117" data-name="패스 117" d="M148.517,163.858h0V158a3.221,3.221,0,0,1,0-6.227v-5.86a2.2,2.2,0,1,0-4.4,0h0v17.948a2.2,2.2,0,0,0,4.4,0Z" transform="translate(16.208 0.022)" fill="#87d5d6"/>
      <circle id="타원_98" data-name="타원 98" cx="2.673" cy="2.673" r="2.673" transform="translate(193.11 152.234)" fill="#9cf7ab"/>
      <path id="패스_118" data-name="패스 118" d="M170.17,145.911h0v5.86a3.222,3.222,0,0,1,0,6.227v5.86a2.2,2.2,0,1,0,4.4,0h0V145.911a2.2,2.2,0,1,0-4.4,0Z" transform="translate(26.457 0.022)" fill="#90d4c2"/>
      <path id="패스_119" data-name="패스 119" d="M174.388,145.911h0v17.948a2.2,2.2,0,0,0,4.4,0h0V145.911a2.2,2.2,0,1,0-4.4,0Z" transform="translate(28.116 0.022)" fill="#90d4c2"/>
      <path id="패스_120" data-name="패스 120" d="M179.645,168.247l-7.4-3.546v-3.848a2.2,2.2,0,0,0-4.4,0h0V164.7l-7.4,3.546a2.2,2.2,0,0,0,1.9,3.971h0l7.7-3.688,7.694,3.688h0a2.2,2.2,0,0,0,1.9-3.971Z" transform="translate(22.141 5.922)" fill="#87d5d6"/>
      <path id="패스_121" data-name="패스 121" d="M151.026,171.578c0-5.111-4.158-6.285-9.267-6.285h-7.545a2.2,2.2,0,0,1,0-4.4h7.545c7.55,0,13.67,3.139,13.67,10.69Z" transform="translate(11.448 6.78)" fill="#9cf7ab"/>
    </g>
  </g>
</svg>
