<svg xmlns="http://www.w3.org/2000/svg" width="30" height="30" viewBox="0 0 30 30">
  <g id="그룹_307" data-name="그룹 307" transform="translate(6493 -8757)">
    <circle id="타원_163" data-name="타원 163" cx="15" cy="15" r="15" transform="translate(-6493 8757)" fill="#87d5d6"/>
    <g id="twitter-logo" transform="translate(-6484.006 8767.18)">
      <path id="패스_38" data-name="패스 38" d="M13.5,39.475a.513.513,0,0,0-.714-.129L11.2,40.452a.513.513,0,0,0-.22.444c0,.105.007.2.007.3a6.56,6.56,0,0,1-6.624,6.624,6.6,6.6,0,0,1-2.452-.471l2.458-.688a.513.513,0,0,0-.276-.988L.375,46.714a.513.513,0,0,0-.139.926,7.624,7.624,0,0,0,4.122,1.208,7.339,7.339,0,0,0,5.684-2.5A7.9,7.9,0,0,0,12.009,41.2q0-.03,0-.061l1.365-.947A.513.513,0,0,0,13.5,39.475Z" transform="translate(0 -37.885)" fill="#fff"/>
      <path id="패스_39" data-name="패스 39" d="M12.725,20.667l5.17,2.621a.513.513,0,0,0,.732-.574,2,2,0,0,1,3.4-1.821.513.513,0,0,0,.549.131l1.6-.58a.513.513,0,1,0-.35-.964l-1.3.472a3.023,3.023,0,0,0-4.961,2.017l-4.374-2.217a.513.513,0,1,0-.464.915Z" transform="translate(-11.593 -19.237)" fill="#fff"/>
      <path id="패스_40" data-name="패스 40" d="M7.559,71.328l1.136.314a.513.513,0,0,0,.273-.989l-1.136-.314a.513.513,0,1,0-.273.989Z" transform="translate(-6.691 -66.826)" fill="#fff"/>
      <path id="패스_41" data-name="패스 41" d="M20.528,106.786a.513.513,0,0,0,.019,1.026h.02l1.133-.043a.513.513,0,1,0-.039-1.025Z" transform="translate(-18.664 -100.757)" fill="#fff"/>
    </g>
  </g>
</svg>
